<?xml version="1.0" encoding="UTF-8" standalone="no"?>
<!-- Created with Inkscape (http://www.inkscape.org/) -->

<svg
   version="1.1"
   id="svg1"
   width="832"
   height="1472"
   viewBox="0 0 832 1472"
   sodipodi:docname="lolipop.svg"
   inkscape:version="1.4.2 (ebf0e940, 2025-05-08)"
   xmlns:inkscape="http://www.inkscape.org/namespaces/inkscape"
   xmlns:sodipodi="http://sodipodi.sourceforge.net/DTD/sodipodi-0.dtd"
   xmlns="http://www.w3.org/2000/svg"
   xmlns:svg="http://www.w3.org/2000/svg">
  <defs
     id="defs1" />
  <sodipodi:namedview
     id="namedview1"
     pagecolor="#ffffff"
     bordercolor="#000000"
     borderopacity="0.25"
     inkscape:showpageshadow="2"
     inkscape:pageopacity="0.0"
     inkscape:pagecheckerboard="0"
     inkscape:deskcolor="#d1d1d1"
     inkscape:zoom="0.28326408"
     inkscape:cx="224.17244"
     inkscape:cy="781.95584"
     inkscape:window-width="1320"
     inkscape:window-height="650"
     inkscape:window-x="0"
     inkscape:window-y="25"
     inkscape:window-maximized="0"
     inkscape:current-layer="svg1" />
  <path
     style="display:inline;fill:#000000"
     d="m 490.72,588.69519 c 1.936,-0.27596 4.79662,-0.65022 6.35693,-0.83169 2.86955,-0.33375 7.22135,-1.23887 10.44307,-2.17204 0.968,-0.28037 2.552,-0.69442 3.52,-0.92009 1.86584,-0.43499 3.93814,-1.07867 6.56,-2.03762 0.88,-0.32186 2.248,-0.80456 3.04,-1.07266 3.50057,-1.18499 5.23617,-1.83778 5.56559,-2.09331 0.19492,-0.15121 0.85624,-0.44412 1.46958,-0.65091 2.31479,-0.78045 9.42198,-4.22567 13.92483,-6.75009 1.584,-0.88804 3.24,-1.79348 3.68,-2.01211 1.29949,-0.64568 3.86904,-2.1882 5.82244,-3.49525 1.00234,-0.67068 1.90818,-1.21942 2.01296,-1.21942 0.10478,0 0.58068,-0.26751 1.05756,-0.59447 0.47687,-0.32695 2.23504,-1.50474 3.90704,-2.61729 1.672,-1.11256 4.12,-2.86125 5.44,-3.88599 1.32,-1.02473 3.92699,-3.05095 5.79331,-4.5027 6.48319,-5.04307 12.93778,-10.96229 17.98934,-16.49722 3.64652,-3.99545 9.866,-12.28091 13.97735,-18.6203 0.44,-0.67845 1.79439,-2.72045 3.00975,-4.53779 2.35736,-3.52495 3.86814,-5.91002 4.72812,-7.46424 0.29215,-0.528 1.43583,-2.544 2.54151,-4.48 1.96822,-3.44627 8.48765,-16.28114 9.68666,-19.07025 0.33332,-0.77536 0.93193,-2.12975 1.33023,-3.00975 0.98184,-2.16922 1.81878,-4.23022 3.18373,-7.84 0.63223,-1.672 1.43086,-3.71469 1.77475,-4.53932 0.34389,-0.82463 0.62525,-1.66053 0.62525,-1.85756 0,-0.19703 0.27169,-0.96233 0.60376,-1.70068 0.33208,-0.73834 0.70283,-1.84644 0.82391,-2.46244 0.12108,-0.616 0.48595,-1.84 0.81083,-2.72 0.32488,-0.88 0.97905,-2.896 1.45371,-4.48 0.47467,-1.584 1.12522,-3.672 1.44567,-4.64 0.55588,-1.67917 1.32979,-4.4508 2.8146,-10.08 0.89041,-3.37571 2.19175,-9.25945 2.7882,-12.60626 0.2633,-1.47744 0.53587,-2.77872 0.60572,-2.89173 0.33298,-0.53878 1.86824,-12.37525 2.44449,-18.84645 0.81589,-9.16225 1.18037,-30.59619 0.63762,-37.49556 -0.20076,-2.552 -0.57965,-7.52 -0.84198,-11.04 -0.26233,-3.52 -0.54361,-6.616 -0.62506,-6.88 -0.0815,-0.264 -0.43054,-2.64 -0.77574,-5.28 -0.62946,-4.81383 -1.21958,-8.12215 -2.14049,-12 -0.27168,-1.144 -0.76668,-3.304 -1.10001,-4.8 -0.33332,-1.496 -1.05403,-4.376 -1.60157,-6.4 -0.54755,-2.024 -1.19179,-4.472 -1.43166,-5.44 -1.13045,-4.56203 -1.53221,-6.04849 -2.07576,-7.68 -0.3225,-0.968 -0.67203,-2.264 -0.77674,-2.88 -0.10471,-0.616 -0.46691,-1.84 -0.80488,-2.72 -0.33796,-0.88 -1.00511,-2.896 -1.48254,-4.48 -0.75234,-2.4961 -2.09944,-6.22861 -3.00276,-8.32 -0.69398,-1.60674 -2.37861,-5.5901 -2.97732,-7.04 -1.08696,-2.6323 -4.35818,-9.59544 -7.81732,-16.64 -1.16751,-2.37764 -4.32312,-8.29343 -5.05468,-9.47595 -0.176,-0.2845 -0.66304,-1.14437 -1.08231,-1.91084 -0.41927,-0.76647 -1.00874,-1.75799 -1.30994,-2.20339 -0.3012,-0.4454 -0.91095,-1.38582 -1.355,-2.08982 -1.42148,-2.25361 -4.34638,-6.65592 -5.84671,-8.8 -0.80053,-1.144 -1.80708,-2.584 -2.23678,-3.2 -3.71333,-5.32322 -11.46698,-14.20676 -18.71641,-21.44382 -4.79887,-4.79068 -10.21553,-9.66371 -11.58443,-10.4218 -0.29237,-0.16191 -1.01379,-0.72638 -1.60314,-1.25438 -3.80497,-3.40885 -16.76902,-12.62728 -19.62528,-13.95507 -0.352,-0.16364 -2.584,-1.45098 -4.96,-2.86076 -2.376,-1.40979 -6.336,-3.55004 -8.8,-4.75613 -22.60021,-11.06241 -22.2372,-10.90231 -28.32,-12.49025 -2.552,-0.66621 -6.14064,-1.65763 -7.97476,-2.20315 -1.83411,-0.54551 -3.99411,-1.08272 -4.8,-1.19378 -0.80588,-0.11107 -2.31294,-0.41324 -3.34903,-0.67151 -1.03608,-0.25826 -3.55608,-0.66794 -5.6,-0.91041 -2.04391,-0.24246 -5.44421,-0.66091 -7.55621,-0.92988 -10.11489,-1.28818 -19.92137,-1.86326 -28.96,-1.69828 -11.20443,0.20451 -17.81398,0.87377 -30.63869,3.10238 -9.10792,1.58273 -15.57371,3.1784 -24.24131,5.98242 -3.35914,1.0867 -10.72215,4.68484 -11.68579,5.71058 -0.72018,0.7666 -0.73027,0.83476 -0.20135,1.36044 0.77218,0.76744 6.14871,0.67711 12.6566,-0.21265 4.15229,-0.5677 6.53241,-0.67395 15.09684,-0.67395 5.59207,0 11.22181,0.14311 12.51054,0.31803 1.28874,0.17492 4.43116,0.53362 6.98316,0.79712 2.552,0.2635 5.936,0.76238 7.52,1.10863 1.584,0.34624 4.824,1.05381 7.2,1.57237 7.81896,1.70649 15.57824,3.94947 19.52,5.64267 9.05835,3.89105 12.87488,5.6079 16.16,7.26951 4.63451,2.34412 10.90932,5.73822 12.4413,6.72962 0.61367,0.39713 2.51113,1.58605 4.21657,2.64205 1.70544,1.056 3.5511,2.29654 4.10146,2.75676 0.55037,0.46022 2.44067,1.8147 4.20067,3.00995 3.20544,2.17688 6.15601,4.37296 7.36507,5.48173 0.35479,0.32536 1.50679,1.30611 2.56,2.17946 2.99304,2.48188 12.08104,11.51468 15.14407,15.05208 1.52397,1.75999 2.91486,3.35861 3.09086,3.5525 1.0537,1.16077 3.23475,3.78168 4.70189,5.65011 3.58465,4.56515 4.35421,5.57958 5.7245,7.54601 0.77748,1.11572 1.70161,2.42748 2.05361,2.91502 0.352,0.48753 0.92613,1.30266 1.27585,1.8114 0.34972,0.50874 0.78172,1.08171 0.96,1.27326 0.34818,0.3741 2.84758,3.96209 4.20851,6.04148 0.73226,1.11884 2.13924,3.64529 4.01538,7.21024 0.32419,0.616 0.76379,1.408 0.97689,1.76 1.41801,2.34224 1.859,3.05338 2.7781,4.48 1.39304,2.16225 9.62527,19.03776 9.62527,19.73115 0,0.16399 0.36,0.97442 0.8,1.80096 0.44,0.82654 0.80089,1.71994 0.80197,1.98534 0.001,0.2654 0.23395,0.91455 0.51747,1.44255 0.28353,0.528 0.70414,1.608 0.9347,2.4 0.23055,0.792 0.86753,2.664 1.4155,4.16 0.54797,1.496 1.14819,3.224 1.33383,3.84 0.18564,0.616 0.53108,1.552 0.76765,2.08 0.97952,2.18622 4.42764,13.29922 5.90769,19.04 0.56719,2.2 1.30349,4.92425 1.63622,6.05389 0.33274,1.12964 0.60396,2.35364 0.60273,2.72 -10e-4,0.36636 0.34277,2.10611 0.76444,3.86611 2.02565,8.45482 4.80347,27.38804 5.32586,36.30035 0.3723,6.35174 0.37272,15.12063 10e-4,21.46129 -0.33284,5.67778 -0.77337,8.2518 -3.69639,21.59836 -1.36129,6.21567 -3.62425,13.32414 -5.90851,18.56 -0.15357,0.352 -0.80303,1.864 -1.44326,3.36 -0.64022,1.496 -1.42673,3.224 -1.74781,3.84 -6.76096,12.97137 -9.82211,17.91365 -15.53311,25.07845 -0.88,1.10401 -1.96,2.48573 -2.4,3.07049 -1.2175,1.61805 -2.77538,3.39739 -5.70115,6.51156 -1.46363,1.55788 -3.04763,3.2692 -3.52,3.80294 -1.25463,1.41762 -9.69515,9.29743 -13.02914,12.1636 -5.77899,4.9681 -14.78981,11.61139 -23.18971,17.09678 -2.024,1.32173 -3.968,2.65287 -4.32,2.9581 -0.352,0.30522 -2.04236,1.41066 -3.75635,2.45652 -1.71399,1.04586 -4.25845,2.62156 -5.65437,3.50156 -1.39591,0.88 -3.56583,2.248 -4.82204,3.04 -3.38821,2.13616 -9.60693,5.97697 -10.88724,6.72418 -3.37266,1.96835 -12.1557,7.85549 -16.48,11.04629 -1.056,0.7792 -2.81145,2.03161 -3.901,2.78313 -3.80477,2.62435 -10.21723,8.24306 -15.1392,13.26522 -6.8972,7.03761 -7.99788,8.88649 -5.68014,9.54137 4.09132,1.15599 6.04743,2.55032 9.11856,6.49978 3.72775,4.79386 5.0475,5.84364 9.04178,7.19217 2.26659,0.76524 8.23109,1.99309 11.04,2.27269 3.08532,0.30711 17.453,-0.0725 20.8,-0.54964 z"
     id="path12" />
  <path
     style="display:inline;fill:#000000"
     d="m 344.80061,613.44972 c 3.51967,-0.3383 6.83139,-0.76289 7.35939,-0.94353 0.528,-0.18064 2.14079,-0.47149 3.58398,-0.64633 1.44319,-0.17484 3.12968,-0.52918 3.74776,-0.78743 0.61808,-0.25825 1.81329,-0.56819 2.65602,-0.68875 0.84273,-0.12057 2.18024,-0.47829 2.97224,-0.79493 0.792,-0.31665 1.872,-0.66796 2.4,-0.7807 2.78861,-0.59541 11.35973,-4.45525 16.07154,-7.2375 4.4564,-2.63145 11.85731,-7.6235 14.6629,-9.89041 4.58285,-3.70293 7.64918,-6.41643 21.69665,-19.20014 1.45049,-1.32 3.12798,-2.76 3.72775,-3.2 4.05792,-2.97692 8.64116,-7.17276 8.64116,-7.91076 0,-0.97091 -4.50934,0.002 -9.29756,2.00651 -3.79032,1.58656 -6.25721,2.56231 -8.30244,3.28393 -0.968,0.34154 -3.848,1.37931 -6.4,2.30615 -2.552,0.92683 -5.576,1.94517 -6.72,2.26297 -1.144,0.3178 -3.088,0.8838 -4.32,1.25778 -3.66488,1.11248 -9.98466,2.52039 -13.6,3.02978 -0.792,0.11159 -2.808,0.47212 -4.48,0.80117 -5.57119,1.09643 -15.10737,1.76251 -25.12,1.75458 -12.0542,-0.01 -17.31961,-0.6198 -32.32,-3.74579 -11.04072,-2.30081 -14.4788,-3.16627 -18.56,-4.67206 -1.408,-0.51949 -3.352,-1.23399 -4.32,-1.58779 -8.67683,-3.17127 -18.57207,-8.26651 -26.56,-13.67621 -5.76852,-3.90665 -6.15621,-4.17679 -9.12,-6.3549 -1.408,-1.03475 -3.18013,-2.33001 -3.93807,-2.87836 -2.33496,-1.68929 -4.90816,-3.74423 -7.58193,-6.05489 -1.408,-1.21678 -3.4166,-2.95254 -4.46356,-3.85722 -2.81831,-2.43534 -12.32187,-11.91325 -14.16312,-14.12489 -0.87914,-1.056 -2.73579,-3.15319 -4.12588,-4.66043 -4.35856,-4.72585 -5.0005,-5.47816 -8.17425,-9.57957 -1.7024,-2.2 -3.31341,-4.2411 -3.58001,-4.53578 -0.26661,-0.29468 -0.65867,-0.87068 -0.87126,-1.28 -0.21259,-0.40932 -0.90438,-1.3846 -1.53732,-2.16728 -0.63294,-0.78269 -1.50069,-1.93469 -1.92834,-2.56 -4.09758,-5.99158 -6.9509,-10.33451 -8.68598,-13.2206 -1.13865,-1.89401 -2.45496,-4.05401 -2.92512,-4.8 -1.01174,-1.60529 -1.38834,-2.29245 -4.25096,-7.75634 -3.26314,-6.22836 -5.22568,-10.22545 -7.07028,-14.4 -1.85888,-4.20686 -2.14088,-4.86347 -3.50455,-8.16 -2.38423,-5.76366 -3.03937,-7.43264 -3.03937,-7.74289 0,-0.19086 -0.27565,-0.93878 -0.61256,-1.66206 -0.3369,-0.72328 -1.07009,-2.82705 -1.62931,-4.67505 -0.55921,-1.848 -1.28268,-4.152 -1.6077,-5.12 -0.32502,-0.968 -0.96033,-3.128 -1.4118,-4.8 -0.45146,-1.672 -1.04723,-3.73798 -1.32393,-4.59107 -0.2767,-0.85309 -0.61853,-2.22109 -0.75963,-3.04 -0.24883,-1.44419 -1.01225,-4.70985 -2.25564,-9.64893 -0.33231,-1.32 -0.68562,-2.976 -0.78515,-3.68 -0.0995,-0.704 -0.45851,-2.576 -0.79775,-4.16 -1.02736,-4.79696 -1.6602,-8.45295 -2.13258,-12.32 -0.24724,-2.024 -0.67957,-4.976 -0.96075,-6.56 -0.68967,-3.88533 -1.00653,-25.25494 -0.46973,-31.68 0.67846,-8.12074 1.83517,-16.54829 3.27209,-23.84 2.24713,-11.40308 3.4348,-16.74195 4.91184,-22.08 0.41395,-1.496 1.13254,-4.16 1.59686,-5.92 0.46433,-1.76 0.98624,-3.5454 1.1598,-3.96756 0.17356,-0.42216 0.51909,-1.57416 0.76784,-2.56 0.24876,-0.98584 0.89471,-3.01644 1.43545,-4.51244 0.54074,-1.496 1.55109,-4.376 2.24522,-6.4 2.31693,-6.75587 2.58854,-7.51427 3.0543,-8.52836 0.25472,-0.5546 0.46313,-1.17846 0.46313,-1.38637 0,-0.37022 1.25114,-3.38562 2.72405,-6.56527 0.40765,-0.88 1.0775,-2.37658 1.48856,-3.32572 1.20374,-2.77943 5.5033,-11.25438 6.59234,-12.99428 0.55081,-0.88 1.54903,-2.41093 2.21826,-3.40208 1.92053,-2.84433 3.653,-5.4614 4.4207,-6.67792 4.25549,-6.74338 4.58204,-7.21298 11.57108,-16.64 2.46264,-3.32167 6.96297,-8.786 10.93719,-13.28 3.53994,-4.00292 15.94698,-16.55627 18.97623,-19.2 0.80666,-0.704 3.24976,-2.85353 5.42912,-4.77674 4.85668,-4.28586 11.74258,-9.77059 16.44247,-13.09671 1.936,-1.37011 4.168,-2.95559 4.96,-3.52329 0.792,-0.56769 1.89598,-1.31367 2.45329,-1.65772 0.55731,-0.34405 2.28531,-1.47504 3.84,-2.51332 1.55469,-1.03828 3.33071,-2.20138 3.94671,-2.58467 0.616,-0.38329 2.56,-1.63632 4.32,-2.78453 1.76,-1.1482 3.56,-2.27221 4,-2.49779 0.44,-0.22557 2.24,-1.3782 4,-2.56139 6.18348,-4.15696 24.36544,-14.06424 33.44,-18.22134 1.672,-0.76595 3.76,-1.72764 4.64,-2.13709 0.88,-0.40945 3.76,-1.63044 6.4,-2.71332 2.64,-1.08288 5.232,-2.1912 5.76,-2.46292 4.07682,-2.09803 23.11872,-8.79002 31.2,-10.96477 1.848,-0.49732 4.17002,-1.18731 5.16005,-1.53332 0.99002,-0.34602 2.64602,-0.80023 3.68,-1.00937 1.03397,-0.20913 3.89595,-0.88041 6.35995,-1.49172 9.95277,-2.46926 18.16993,-4.23624 21.41491,-4.60496 1.49891,-0.17031 3.70174,-0.50961 4.89519,-0.75398 1.19344,-0.24437 3.3219,-0.54182 4.7299,-0.661 1.408,-0.11917 3.928,-0.4251 5.6,-0.67983 8.23597,-1.25476 32.34563,-1.31586 43.6678,-0.11067 15.09485,1.60678 22.52083,2.62577 30.5722,4.19511 0.968,0.18868 3.056,0.59457 4.64,0.90199 3.1326,0.60797 12.56458,2.92932 14.88,3.6622 0.792,0.25068 2.016,0.55635 2.72,0.67926 0.704,0.12291 2.072,0.54728 3.04,0.94305 0.968,0.39577 2.43102,0.81629 3.25115,0.93449 1.32098,0.19039 1.55102,0.131 2.01576,-0.52037 0.50058,-0.7016 0.48668,-0.76459 -0.30339,-1.37528 -2.33863,-1.80764 -11.51595,-6.93296 -16.16352,-9.02694 -15.3895,-6.933818 -16.30021,-7.289277 -26.56,-10.366658 -2.904,-0.871042 -6.432,-1.933962 -7.84,-2.362043 -4.94206,-1.502559 -14.01123,-3.450927 -17.92,-3.849828 -1.056,-0.107768 -3.504,-0.466681 -5.44,-0.797585 -5.70697,-0.975443 -12.45484,-1.88189 -17.76,-2.385717 -2.728,-0.259075 -6.976,-0.684627 -9.44,-0.945671 -2.464,-0.261043 -7.288,-0.62836 -10.72,-0.816258 -3.432,-0.187899 -6.744,-0.410819 -7.36,-0.495378 -3.30371,-0.453504 -26.32227,-0.799132 -32.38804,-0.486312 -10.76733,0.555285 -24.46547,2.601119 -35.55514,5.310203 -6.06001,1.480393 -16.19812,4.390769 -19.54362,5.610443 -1.38974,0.506658 -4.05374,1.354232 -5.92,1.883496 -3.3563,0.951832 -7.03376,2.172446 -16.6732,5.534114 -2.728,0.951364 -7.048,2.702954 -9.6,3.892414 -2.552,1.18946 -6.368,2.84905 -8.48,3.68797 -3.72093,1.47802 -12.55585,5.62249 -16.8,7.88089 -2.68879,1.43077 -8.77455,4.40468 -10.33176,5.0488 -3.23509,1.33815 -12.35993,6.74389 -15.97776,9.46554 -1.53424,1.15418 -3.83824,2.76495 -5.12,3.57948 -2.76696,1.75833 -6.88253,4.35492 -8.89048,5.60915 -0.792,0.49471 -2.664,1.79672 -4.16,2.89335 -1.496,1.09662 -4.14947,3.04297 -5.8966,4.3252 -1.74713,1.28224 -4.69913,3.55635 -6.56,5.05358 -1.86087,1.49723 -4.23628,3.36923 -5.27868,4.16 -2.0941,1.58858 -11.3102,9.27812 -12.82472,10.70042 -0.528,0.49585 -2.112,1.91507 -3.52,3.15383 -5.0974,4.4847 -14.09852,13.29327 -18.67885,18.27927 -2.57463,2.80266 -5.16601,5.61066 -5.75862,6.24 -3.02372,3.21108 -9.76337,11.74115 -14.93635,18.90424 -0.95326,1.32 -1.87679,2.57035 -2.05227,2.77855 -0.17549,0.2082 -0.97149,1.3602 -1.76889,2.56 -0.79741,1.1998 -2.02462,3.04545 -2.72715,4.10145 -0.70252,1.056 -1.4188,2.136 -1.59173,2.4 -0.17292,0.264 -0.6455,0.984 -1.05016,1.6 -0.79221,1.20593 -5.20082,8.55639 -5.99391,9.99361 -0.26514,0.48049 -1.65725,2.92849 -3.09357,5.44 -2.25695,3.94643 -8.4285,16.24122 -8.4285,16.79101 0,0.10529 -0.34996,0.92582 -0.77769,1.82341 -2.3098,4.84704 -4.02231,8.75263 -4.02231,9.17335 0,0.26192 -0.2076,0.77261 -0.46134,1.13486 -0.55564,0.7933 -1.60567,3.42204 -2.41413,6.04376 -0.32564,1.056 -0.97818,2.928 -1.45009,4.16 -0.47192,1.232 -1.12264,3.104 -1.44605,4.16 -0.3234,1.056 -1.08365,3.22468 -1.68944,4.81929 -0.60579,1.59462 -1.20021,3.39462 -1.32094,4 -0.12074,0.60539 -0.557,2.10871 -0.96949,3.34071 -1.43856,4.29669 -2.08852,6.57877 -2.08852,7.33301 0,0.41777 -0.27074,1.67474 -0.60164,2.79328 -0.8826,2.98342 -2.2177,9.10586 -2.46715,11.31371 -0.11931,1.056 -0.34061,2.25067 -0.49178,2.65481 -0.15117,0.40415 -0.48458,2.42015 -0.74092,4.48 -0.25634,2.05986 -0.68574,5.04119 -0.95422,6.62519 -0.26848,1.584 -0.63846,4.68 -0.82217,6.88 -0.18372,2.2 -0.47687,5.152 -0.65145,6.56 -0.54186,4.37008 -0.76618,23.7311 -0.34295,29.6 0.81856,11.35098 1.67373,21.08953 2.09344,23.84 0.24171,1.584 0.53448,3.744 0.6506,4.8 0.11611,1.056 0.34104,2.424 0.49984,3.04 0.15879,0.616 0.52134,2.68768 0.80567,4.60372 0.28432,1.91605 0.93859,5.30005 1.45392,7.52 0.51533,2.21996 1.28511,5.62028 1.71061,7.55628 0.4255,1.936 1.05169,4.528 1.39153,5.76 0.33984,1.232 0.99058,3.608 1.44609,5.28 0.80664,2.96087 1.1996,4.13715 3.15364,9.44 0.51883,1.408 1.16895,3.28 1.44471,4.16 0.27576,0.88 0.6088,1.744 0.7401,1.92 0.1313,0.176 0.41849,0.896 0.63821,1.6 0.21972,0.704 0.59029,1.712 0.82349,2.24 0.23319,0.528 0.9258,2.256 1.53912,3.84 1.17251,3.02816 2.16729,5.43584 2.90873,7.04 0.24404,0.528 0.98018,2.184 1.63587,3.68 1.58484,3.61593 7.62268,15.73657 9.66229,19.39655 0.89393,1.6041 2.90609,4.8441 4.47148,7.2 1.56539,2.3559 3.53702,5.36345 4.3814,6.68345 0.84438,1.32 1.73397,2.688 1.97687,3.04 0.24289,0.352 1.41431,2.06155 2.60315,3.79899 1.18884,1.73745 2.48604,3.60945 2.88268,4.16 0.39663,0.55056 1.06393,1.50501 1.48288,2.12101 6.55894,9.64391 19.99358,24.86471 28.6983,32.5138 3.37801,2.96836 6.2243,5.48983 8.61766,7.63422 1.32,1.18269 3.48,3.01333 4.8,4.06809 1.32,1.05476 2.76,2.20639 3.2,2.55918 1.05074,0.84248 10.17,7.64055 11.2,8.3492 6.88649,4.73791 16.15669,10.62394 18.76563,11.91507 0.90509,0.44792 2.12909,1.14028 2.72,1.53858 0.5909,0.3983 1.65037,1.02002 2.35437,1.38161 0.704,0.36159 2.576,1.3468 4.16,2.18937 6.12827,3.25976 11.56772,6.02454 12.64,6.42469 0.616,0.22989 2.344,0.94089 3.84,1.58002 7.68887,3.28489 18.8129,7.52617 19.73961,7.52617 0.16033,0 2.05809,0.56974 4.21725,1.26609 2.15917,0.69635 5.32016,1.5649 7.02445,1.93012 7.96973,1.70786 12.63665,2.57461 15.57869,2.89333 1.76,0.19066 3.704,0.47545 4.32,0.63286 1.13689,0.29052 5.00377,0.63549 14.24,1.27035 2.816,0.19356 5.84,0.40298 6.72,0.46537 3.32757,0.23593 14.32389,-0.17664 20.48061,-0.7684 z"
     id="path11" />
  <path
     style="display:inline;fill:#000000"
     d="m 520.60673,637.46487 c 11.63656,-1.43757 19.21037,-3.05467 29.79327,-6.36124 3.45295,-1.07885 10.28616,-3.54455 10.67539,-3.85212 0.20054,-0.15845 0.94061,-0.46964 1.64461,-0.69151 0.704,-0.22187 1.424,-0.50987 1.6,-0.64 0.176,-0.13013 0.89034,-0.42054 1.58741,-0.64536 0.69708,-0.22482 1.94199,-0.74759 2.76647,-1.1617 0.82449,-0.41412 1.59264,-0.75294 1.707,-0.75294 0.11436,0 2.90145,-1.31505 6.19353,-2.92234 8.76485,-4.27926 18.00491,-9.58202 23.90559,-13.71914 0.528,-0.37019 1.68591,-1.1333 2.57312,-1.6958 1.72202,-1.09176 6.55133,-4.66404 10.22688,-7.5649 11.41572,-9.00965 24.29906,-21.50062 32.85854,-31.85782 1.01816,-1.232 2.04499,-2.456 2.28185,-2.72 1.26795,-1.41326 6.68358,-8.28172 8.05961,-10.22172 0.352,-0.49627 1.59628,-2.25141 2.76508,-3.9003 1.16879,-1.64889 2.53679,-3.66739 3.04,-4.48556 0.5032,-0.81817 1.47677,-2.33017 2.16348,-3.36 1.90074,-2.85048 2.47244,-3.78223 4.97758,-8.11242 1.27276,-2.2 2.44814,-4.216 2.61195,-4.48 0.16382,-0.264 0.5893,-1.056 0.94551,-1.76 0.35621,-0.704 1.07946,-2.072 1.6072,-3.04 2.37957,-4.36462 5.96748,-11.66211 8.10262,-16.48 0.46798,-1.056 1.13341,-2.45253 1.47873,-3.1034 0.34532,-0.65087 0.62785,-1.37642 0.62785,-1.61234 0,-0.23591 0.29486,-0.99938 0.65525,-1.6966 0.36039,-0.69721 0.91862,-1.98766 1.24051,-2.86766 0.32189,-0.88 0.90718,-2.392 1.30064,-3.36 0.39346,-0.968 0.97296,-2.49511 1.28779,-3.39358 0.31482,-0.89847 0.72851,-1.90647 0.91929,-2.24 0.57286,-1.00147 5.95833,-17.0911 6.84376,-20.44642 0.27867,-1.056 0.73479,-2.784 1.01361,-3.84 0.27881,-1.056 0.7912,-2.928 1.13864,-4.16 0.99205,-3.51778 1.65628,-6.22512 2.08052,-8.48 0.21523,-1.144 0.68757,-3.376 1.04964,-4.96 0.9996,-4.37308 1.93495,-9.09623 2.15463,-10.88 0.10838,-0.88 0.46589,-2.824 0.79446,-4.32 0.32857,-1.496 0.6949,-3.728 0.81407,-4.96 0.11916,-1.232 0.4177,-3.12933 0.66342,-4.21629 0.58415,-2.58411 1.31725,-15.67927 1.76139,-31.46371 0.76044,-27.02506 -0.44781,-53.16786 -3.11319,-67.36 -0.26443,-1.408 -0.62486,-3.784 -0.80096,-5.28 -0.17609,-1.496 -0.53512,-3.656 -0.79783,-4.8 -0.26271,-1.144 -0.61119,-3.16 -0.7744,-4.48 -0.1632,-1.32 -0.5849,-3.624 -0.93711,-5.12 -1.40929,-5.98599 -1.69893,-7.29128 -2.10838,-9.50159 -0.23449,-1.26587 -0.65072,-2.99387 -0.92494,-3.84 -0.27423,-0.84612 -0.87256,-2.90641 -1.32962,-4.57841 -2.73104,-9.99055 -7.58589,-23.4373 -11.14898,-30.88 -0.75832,-1.584 -2.12458,-4.464 -3.03612,-6.4 -0.91155,-1.936 -1.79614,-3.736 -1.96576,-4 -0.16962,-0.264 -0.57811,-1.056 -0.90776,-1.76 -1.80363,-3.85189 -11.7065,-20.44268 -15.07257,-25.25186 -0.264,-0.37718 -1.34457,-1.83381 -2.40127,-3.23696 -1.05669,-1.40315 -2.19626,-2.98318 -2.53237,-3.51118 -0.33611,-0.528 -1.35187,-1.824 -2.25726,-2.88 -0.90539,-1.056 -2.5925,-3.144 -3.74915,-4.64 -1.15664,-1.496 -2.47048,-3.11281 -2.91963,-3.59292 -0.44914,-0.4801 -1.86564,-2.1361 -3.14776,-3.68 -3.93099,-4.7336 -14.00694,-14.4657 -20.29982,-19.60708 -2.93125,-2.39487 -7.88606,-6.22981 -9.26583,-7.17159 -8.08515,-5.51863 -9.44345,-6.40797 -15.18691,-9.94348 -1.672,-1.02924 -3.544,-2.19151 -4.16,-2.58283 -2.08938,-1.3273 -7.50865,-4.49429 -10.08,-5.8907 -1.408,-0.76463 -2.75714,-1.548 -2.99808,-1.74082 -1.92616,-1.54144 -29.54453,-15.55058 -30.65724,-15.55058 -0.11161,0 -0.93682,-0.3413 -1.8338,-0.75844 -2.29304,-1.06638 -5.82854,-2.44156 -6.2771,-2.44156 -0.20738,0 -0.83082,-0.21359 -1.38542,-0.47465 -0.5546,-0.26106 -1.65636,-0.68087 -2.44836,-0.93292 -0.792,-0.25204 -2.592,-0.91421 -4,-1.47148 -3.73741,-1.47922 -7.46151,-2.62316 -17.28,-5.30792 -1.584,-0.43313 -3.6,-0.98923 -4.48,-1.23579 -0.88,-0.24655 -2.464,-0.61566 -3.52,-0.82023 -1.056,-0.20457 -2.856,-0.63478 -4,-0.95602 -4.0102,-1.12608 -7.82477,-1.89601 -16.64,-3.35859 -1.672,-0.27741 -4.12,-0.71041 -5.44,-0.96223 -1.32,-0.25181 -4.128,-0.61145 -6.24,-0.79919 -2.112,-0.18774 -5.208,-0.47345 -6.88,-0.63491 -9.42661,-0.91028 -13.48431,-1.03886 -26.73712,-0.84718 -7.55859,0.10932 -14.75088,0.33305 -15.98288,0.49719 -1.232,0.16414 -5.1717,0.52424 -8.75488,0.80024 -3.58318,0.276 -7.83118,0.71364 -9.44,0.97255 -1.60882,0.2589 -4.43712,0.69465 -6.28512,0.96834 -1.848,0.27368 -5.376,0.85405 -7.84,1.28971 -2.464,0.43566 -6.352,1.08685 -8.64,1.44708 -5.67912,0.89413 -11.79983,2.33787 -14.79132,3.48893 -1.36877,0.52668 -5.22468,1.84191 -8.56868,2.92273 -3.344,1.08082 -7.71475,2.7412 -9.71278,3.68973 -1.99803,0.94854 -3.70418,1.72461 -3.79145,1.72461 -0.41919,0 -8.4596,3.37542 -10.61372,4.45571 -1.34313,0.67357 -3.592,1.68383 -4.99749,2.24501 -1.4055,0.56119 -2.9895,1.2837 -3.52,1.60559 -0.53051,0.32189 -3.05256,1.63621 -5.60456,2.92072 -2.552,1.2845 -6.368,3.29604 -8.48,4.47008 -2.112,1.17404 -4.90459,2.69448 -6.20576,3.37876 -1.30118,0.68427 -2.59921,1.38813 -2.88453,1.56413 -0.28531,0.176 -1.09272,0.66417 -1.79423,1.08482 -1.64971,0.98923 -2.99823,1.83642 -5.75548,3.6158 -1.232,0.79507 -2.93612,1.86268 -3.78694,2.37248 -1.55817,0.93363 -12.5767,8.22373 -15.25306,10.09176 -0.792,0.55279 -2.34578,1.63734 -3.45285,2.4101 -6.18188,4.31514 -10.84952,7.74208 -12.06304,8.8566 -0.35426,0.32536 -1.50811,1.25518 -2.56411,2.06627 -3.84647,2.95437 -9.3577,7.64145 -12.64,10.74981 -8.82294,8.35539 -19.62405,19.54958 -22.45798,23.27527 -0.62039,0.81559 -1.45134,1.82359 -1.84656,2.24 -0.39522,0.4164 -1.38138,1.62109 -2.19146,2.67709 -0.81008,1.056 -2.64194,3.36 -4.0708,5.12 -2.50017,3.0796 -4.39872,5.65354 -6.95348,9.4271 -2.54417,3.7579 -3.43972,5.15302 -3.43972,5.35849 0,0.11724 -0.26032,0.51044 -0.5785,0.87379 -1.46312,1.67083 -11.2615,19.16529 -11.2615,20.10679 0,0.10991 -1.008,2.30314 -2.24,4.87383 -1.232,2.57069 -2.24,4.74741 -2.24,4.83715 0,0.17931 -1.77451,4.07818 -2.30053,5.05464 -0.18127,0.33648 -0.59238,1.34448 -0.91358,2.24 -0.32121,0.89551 -0.95841,2.63621 -1.41601,3.86821 -3.0759,8.28131 -4.98542,14.72365 -7.20848,24.32 -0.32617,1.408 -1.11653,4.792 -1.75634,7.52 -0.63981,2.728 -1.2375,5.464 -1.3282,6.08 -0.0907,0.616 -0.50815,2.632 -0.92769,4.48 -1.53197,6.74814 -1.74562,7.95692 -2.54517,14.4 -1.93499,15.59293 -1.71857,31.82717 0.65056,48.8 0.53674,3.84527 1.50081,8.89445 2.19714,11.50723 0.27957,1.04898 0.5083,2.20672 0.5083,2.57277 0,0.36605 0.2328,1.52379 0.51732,2.57277 0.28453,1.04898 0.7793,3.05923 1.09949,4.46723 1.26415,5.55895 1.82172,7.73018 2.13962,8.33183 0.18255,0.34549 0.50816,1.49217 0.72357,2.54817 0.21541,1.056 0.54549,2.208 0.73349,2.56 0.18801,0.352 0.52633,1.36 0.75182,2.24 0.81146,3.1668 2.33456,8.3576 3.00465,10.24 0.37591,1.056 1.01603,2.856 1.42248,4 0.40646,1.144 1.19648,3.16 1.75562,4.48 0.55914,1.32 1.13871,2.78971 1.28793,3.26603 0.14923,0.47631 0.48845,1.26831 0.75384,1.76 0.26538,0.49168 0.94128,1.90197 1.50199,3.13397 0.56071,1.232 2.42474,5.048 4.14227,8.48 2.74406,5.4832 3.83158,7.47379 6.95396,12.72843 0.38943,0.65536 1.02047,1.76315 1.40231,2.46175 0.38184,0.6986 0.93777,1.6346 1.23541,2.08 0.29763,0.4454 1.18911,1.81782 1.98105,3.04982 5.6438,8.77981 6.32139,9.78871 8.91907,13.28 1.24405,1.672 2.59867,3.544 3.01027,4.16 1.05159,1.5738 8.66864,10.70359 12.28099,14.72 5.28392,5.87493 15.7801,16.07637 20.53963,19.96286 1.31822,1.07643 2.61422,2.14309 2.88,2.37037 1.21042,1.03509 4.47098,3.53412 5.92322,4.53981 0.88,0.60941 1.744,1.22469 1.92,1.3673 0.52335,0.42405 6.96021,4.57817 8,5.16291 0.528,0.29693 1.608,0.95748 2.4,1.46788 3.45044,2.22362 13.15722,7.36887 13.90176,7.36887 0.1996,0 0.93336,0.29205 1.63058,0.64901 0.69721,0.35696 1.91566,0.85224 2.70766,1.10064 0.792,0.2484 2.376,0.80521 3.52,1.23735 5.31747,2.00869 6.70117,2.50082 8.64,3.07296 1.144,0.33759 2.8,0.84565 3.68,1.12902 2.57861,0.83033 5.65098,1.71107 7.2,2.06398 0.792,0.18044 3.096,0.76432 5.12,1.29752 2.024,0.53319 6.128,1.36304 9.12,1.8441 5.28515,0.84976 5.80435,0.8743 18.24,0.86217 10.37433,-0.0101 13.34578,-0.11096 15.68,-0.5321 1.584,-0.28579 3.816,-0.6157 4.96,-0.73314 2.88597,-0.29626 9.10164,-1.53053 15.36,-3.0501 5.10899,-1.24048 6.44484,-1.58899 10.88,-2.83841 2.87101,-0.80879 10.19313,-3.38438 11.36,-3.99593 0.528,-0.27672 1.10943,-0.50401 1.29207,-0.5051 0.18264,-0.001 1.55064,-0.52204 3.04,-1.15768 1.48936,-0.63564 3.28393,-1.36381 3.98793,-1.61816 4.03008,-1.45603 6.74984,-2.63232 15.04,-6.50476 10.93893,-5.10972 23.85989,-11.84338 31.14329,-16.23009 0.64719,-0.3898 1.65911,-0.93775 2.24871,-1.21767 1.09226,-0.51856 13.98891,-7.73504 19.65015,-10.99549 1.71719,-0.98896 3.51719,-2.01346 4,-2.27664 6.26446,-3.41481 10.59061,-6.06989 19.43785,-11.92953 7.05856,-4.67496 8.24235,-5.53795 12.51776,-9.12541 4.63746,-3.89125 4.3013,-3.58341 9.74724,-8.92641 8.96196,-8.79256 14.22418,-14.68855 18.215,-20.40878 0.44,-0.63068 1.376,-1.91955 2.08,-2.86416 1.25457,-1.68336 1.83384,-2.5859 3.27908,-5.10899 0.39549,-0.69045 1.08177,-1.73089 1.52506,-2.31208 0.4433,-0.58119 1.09185,-1.67532 1.44123,-2.43141 0.34938,-0.75609 0.99216,-1.95071 1.42839,-2.65471 2.60654,-4.20646 6.19467,-12.51404 8.15446,-18.88 0.54183,-1.76 1.18479,-3.848 1.4288,-4.64 0.24402,-0.792 0.95949,-3.6 1.58993,-6.24 0.63044,-2.64 1.30092,-5.448 1.48994,-6.24 0.53863,-2.25683 1.57302,-10.57816 1.94911,-15.68 0.3783,-5.13171 0.13792,-18.58613 -0.36876,-20.64 -0.17367,-0.704 -0.53811,-4.016 -0.80987,-7.36 -0.27176,-3.344 -0.6231,-6.512 -0.78077,-7.04 -0.15767,-0.528 -0.52082,-2.60858 -0.807,-4.6235 -0.28618,-2.01493 -0.59209,-3.77963 -0.6798,-3.92155 -0.0877,-0.14193 -0.43993,-1.94935 -0.7827,-4.0165 -1.60433,-9.67531 -2.7982,-14.82711 -5.4687,-23.59845 -2.37286,-7.79375 -3.51507,-11.22612 -4.27564,-12.84836 -0.26002,-0.5546 -0.47276,-1.17591 -0.47276,-1.38068 0,-0.20477 -0.28136,-1.04701 -0.62525,-1.87164 -0.34389,-0.82463 -1.14993,-2.86732 -1.79122,-4.53932 -0.64128,-1.672 -1.27715,-3.184 -1.41304,-3.36 -0.1359,-0.176 -0.42842,-0.896 -0.65006,-1.6 -0.22163,-0.704 -0.59216,-1.64 -0.82339,-2.08 -0.23122,-0.44 -0.95463,-2.024 -1.60756,-3.52 -2.335,-5.34999 -10.91199,-21.83342 -13.98673,-26.88 -1.23317,-2.024 -2.58485,-4.256 -3.00373,-4.96 -0.41888,-0.704 -1.48005,-2.288 -2.35814,-3.52 -0.8781,-1.232 -2.12715,-3.032 -2.77567,-4 -0.64853,-0.968 -2.121,-2.93072 -3.27217,-4.3616 -1.15117,-1.43087 -3.24504,-4.0844 -4.65304,-5.89672 -6.43497,-8.28281 -15.27233,-17.87058 -20.6384,-22.39087 -1.14312,-0.96295 -2.36712,-2.01753 -2.72,-2.34351 -2.87737,-2.65807 -13.6138,-10.31719 -17.38533,-12.4023 -0.76105,-0.42075 -2.05705,-1.15981 -2.88,-1.64236 -0.82295,-0.48255 -1.95504,-1.09262 -2.51576,-1.35572 -0.56072,-0.2631 -1.56872,-0.8518 -2.24,-1.30822 -1.39985,-0.95178 -8.34558,-4.40569 -11.16187,-5.55047 -1.04425,-0.42447 -2.47464,-1.02311 -3.17864,-1.33031 -5.29596,-2.31092 -18.26803,-5.9423 -24.48,-6.8529 -19.99099,-2.93043 -34.79448,-3.12328 -50.4,-0.65659 -2.64,0.41729 -5.52,0.85494 -6.4,0.97255 -1.43175,0.19136 -3.25354,0.59037 -12.48,2.73343 -10.84811,2.51972 -24.49382,7.98237 -35.52,14.21936 -1.408,0.79644 -3.064,1.70208 -3.68,2.01252 -1.32784,0.66918 -1.98151,1.07894 -6.4,4.01185 -12.11199,8.03972 -18.81931,13.63612 -28.32,23.62941 -7.2354,7.61054 -15.21043,17.38782 -17.64422,21.63159 -0.47972,0.83647 -1.07274,1.73686 -1.31781,2.00086 -0.64758,0.69757 -3.0133,4.27657 -4.61321,6.97912 -0.76162,1.28652 -1.70773,2.87052 -2.10247,3.52 -0.39473,0.64948 -0.923,1.61288 -1.17391,2.14088 -0.25091,0.528 -1.33605,2.53306 -2.4114,4.45569 -2.29142,4.0968 -5.13698,9.9148 -5.13698,10.50298 0,0.22594 -0.26784,0.91268 -0.59521,1.52607 -0.32737,0.61339 -0.70418,1.47526 -0.83737,1.91526 -0.13319,0.44 -0.8481,2.24 -1.58869,4 -1.28336,3.04986 -1.65983,4.00059 -3.48464,8.8 -1.13325,2.98055 -3.84663,11.76863 -4.7919,15.52 -1.42616,5.65982 -1.5144,6.03989 -2.0058,8.64 -0.26611,1.408 -0.69427,3.568 -0.95148,4.8 -0.42623,2.04156 -0.65372,4.17871 -1.79901,16.90084 -0.60081,6.67394 0.33023,24.05782 1.68275,31.41916 2.29559,12.49427 5.41994,23.03006 9.15035,30.85643 1.13869,2.38896 2.50945,5.27957 3.04614,6.42357 0.53668,1.144 1.28158,2.72413 1.65532,3.51139 0.75236,1.58478 4.94826,9.1477 7.02642,12.6648 2.5661,4.34289 7.15715,10.65641 11.04133,15.18381 1.13246,1.32 2.9254,3.408 3.9843,4.64 4.80475,5.59015 14.19538,14.26369 20.87168,19.27785 1.7856,1.34106 7.32763,4.99973 8.94515,5.9053 3.02947,1.69606 8.00966,4.01192 9.13066,4.2459 0.616,0.12858 1.45407,0.44556 1.86238,0.7044 0.40831,0.25885 1.34431,0.66435 2.08,0.90112 0.73569,0.23677 2.41762,0.88712 3.73762,1.44523 2.46281,1.0413 5.29851,1.91275 8.96,2.75353 1.144,0.26269 2.872,0.74324 3.84,1.06788 7.48536,2.51041 20.71527,3.48254 33.12,2.43365 5.98195,-0.50581 13.58939,-1.72303 15.4884,-2.4782 0.45738,-0.18189 1.9116,-0.58298 3.2316,-0.89133 5.25438,-1.22739 14.29535,-4.00865 17.12,-5.26661 0.528,-0.23514 1.32,-0.53256 1.76,-0.66093 0.90271,-0.26336 7.73908,-3.49465 12.8,-6.05007 5.69266,-2.8744 12.49765,-7.11291 19.04,-11.85912 1.584,-1.14913 3.6,-2.58504 4.48,-3.1909 9.18702,-6.3251 22.92462,-20.0135 29.56357,-29.4577 1.73287,-2.46508 6.2269,-9.15904 6.43831,-9.59001 0.089,-0.18149 0.66503,-1.17202 1.28,-2.20117 1.79294,-3.0005 2.51607,-4.32356 4.3117,-7.88882 1.9537,-3.87911 4.9655,-10.7248 4.96839,-11.29296 0.001,-0.21287 0.22801,-0.81904 0.50428,-1.34704 0.27626,-0.528 0.93429,-2.328 1.46227,-4 0.52798,-1.672 1.18715,-3.76 1.46482,-4.64 0.54678,-1.73287 1.41403,-5.76124 2.17006,-10.08 0.26189,-1.496 0.69107,-3.944 0.95373,-5.44 0.93569,-5.32931 1.21942,-11.07476 1.00344,-20.32 -0.11512,-4.928 -0.3449,-9.752 -0.51062,-10.72 -0.16572,-0.968 -0.58021,-3.416 -0.92109,-5.44 -0.74101,-4.3999 -1.48463,-7.58749 -2.27686,-9.76 -0.57335,-1.5723 -1.1145,-3.14604 -2.11817,-6.16 -0.2784,-0.836 -0.76748,-2.096 -1.08684,-2.8 -0.31937,-0.704 -0.68722,-1.64 -0.81746,-2.08 -0.3496,-1.18111 -5.30842,-10.73027 -6.74744,-12.99349 -5.48818,-8.63152 -11.13351,-15.51427 -16.84791,-20.54086 -3.59936,-3.16612 -9.44289,-7.67509 -11.47307,-8.85281 -0.59461,-0.34494 -2.30511,-1.33748 -3.80111,-2.20564 -3.18672,-1.84932 -5.49421,-3.00068 -10.56,-5.26904 -5.15498,-2.30831 -13.20807,-4.83683 -17.6,-5.52608 -1.144,-0.17953 -2.8,-0.52916 -3.68,-0.77696 -0.88,-0.24779 -4.696,-0.77903 -8.48,-1.18053 -5.78819,-0.61415 -8.58119,-0.72735 -17.6,-0.71331 -9.76302,0.0152 -11.3015,0.0937 -17.23395,0.87979 -3.58267,0.47472 -6.63655,0.93889 -6.78641,1.03151 -0.14985,0.0926 -1.46658,0.44026 -2.92605,0.77253 -3.98145,0.90646 -8.02799,2.20511 -12.16363,3.90366 -3.09672,1.27186 -11.54115,5.78531 -15.95203,8.52618 -2.28941,1.42262 -3.12136,2.02495 -7.60361,5.50505 -5.81245,4.51288 -11.75488,10.81349 -15.69765,16.64382 -1.42817,2.11188 -2.59667,3.955 -2.59667,4.09581 0,0.14082 -0.34793,0.72763 -0.77318,1.30402 -0.42525,0.5764 -1.51431,2.72837 -2.42014,4.78217 -0.90582,2.0538 -1.78945,3.99633 -1.96362,4.31675 -0.47848,0.88025 -2.16391,6.1587 -2.66834,8.35677 -0.24495,1.06737 -0.59782,2.58866 -0.78416,3.38066 -0.55971,2.37895 -1.31056,10.71874 -1.31056,14.55654 0,15.01449 4.88045,32.57229 12.32036,44.32346 2.2919,3.62001 3.84716,5.97901 4.21941,6.4 0.23343,0.264 1.10748,1.41238 1.94233,2.55196 2.32049,3.16752 6.63651,7.5264 9.87055,9.96857 1.60196,1.20971 3.00563,2.19947 3.11926,2.19947 0.11364,0 0.89094,0.48915 1.72735,1.08701 1.51952,1.08614 6.21973,3.5424 9.83746,5.14092 7.49992,3.31388 17.3342,4.97068 26.88328,4.52908 8.07298,-0.37334 10.59955,-0.97049 20.88728,-4.93666 1.64353,-0.63362 5.82523,-2.82486 7.43272,-3.89479 0.44,-0.29286 1.88,-1.24039 3.2,-2.10561 4.07667,-2.67214 5.82475,-4.11897 9.13077,-7.55724 3.60484,-3.74906 9.00471,-10.33899 10.0482,-12.26271 0.38187,-0.704 1.34199,-2.36 2.13359,-3.68 1.18704,-1.97939 3.15886,-5.8792 4.61124,-9.12 1.6761,-3.73999 3.20829,-9.0251 4.22106,-14.56 1.03832,-5.67459 1.03874,-13.8588 9.3e-4,-18.24 -0.68642,-2.89778 -0.97715,-3.72111 -2.88147,-8.16 -1.9088,-4.44936 -7.28486,-11.15546 -10.74999,-13.40956 -5.17272,-3.36491 -11.50165,-5.2919 -17.42406,-5.30517 -2.5726,-0.006 -8.25533,1.03338 -9.67994,1.77007 -0.4942,0.25557 -1.10025,0.46466 -1.34678,0.46466 -0.6294,0 -3.19096,1.38643 -5.78123,3.12906 -2.02996,1.36568 -5.38654,4.95499 -7.09874,7.59094 -2.78159,4.28227 -4.66002,10.39838 -5.12517,16.68738 -0.17081,2.30943 -0.0826,3.36456 0.47741,5.71262 0.79062,3.31487 1.50469,4.82626 3.28459,6.95215 2.27969,2.72284 4.35645,3.7921 8.25959,4.25263 3.58285,0.42274 7.83992,-1.2712 10.5903,-4.214 2.62472,-2.80836 3.36046,-5.20614 3.82113,-12.4531 0.17469,-2.74817 0.46134,-5.2652 0.63699,-5.59341 0.49461,-0.92419 2.43519,-1.15249 3.75496,-0.44174 2.22394,1.19767 3.93087,5.76449 3.90238,10.44064 -0.0187,3.06157 -0.98052,7.96728 -1.99537,10.17683 -0.931,2.02699 -4.47149,6.40132 -6.04576,7.46966 -3.52422,2.39159 -7.67638,3.67831 -12.79987,3.96654 -2.50533,0.14095 -3.6946,0.0378 -6.24,-0.541 -5.42997,-1.23481 -8.85276,-3.31891 -11.67826,-7.11078 -5.30353,-7.11743 -7.10743,-15.69699 -5.35655,-25.47644 0.36847,-2.05809 0.78144,-3.95933 0.91771,-4.22498 0.13627,-0.26565 0.43168,-1.275 0.65646,-2.243 0.5707,-2.45769 2.49094,-6.38284 4.82105,-9.85469 2.04552,-3.04781 6.93328,-8.06107 9.64084,-9.88838 9.4014,-6.34493 20.2642,-8.46841 30.75071,-6.01121 6.71474,1.57341 11.53485,3.9252 17.11583,8.35102 5.96617,4.73129 11.51185,12.47715 14.06365,19.64326 2.27188,6.37999 2.96533,10.42468 2.96117,17.2716 -0.006,9.24966 -1.34559,15.36741 -5.9279,27.06404 -0.73186,1.86811 -2.97345,6.34873 -5.67544,11.34436 -1.89498,3.50358 -5.83759,9.41143 -9.27511,13.8984 -3.66936,4.78957 -14.13004,13.05974 -21.41974,16.93433 -1.17744,0.62584 -2.40144,1.28132 -2.72,1.45662 -1.35234,0.74423 -6.8205,3.23487 -8.73918,3.98053 -3.85501,1.49817 -10.05722,2.96194 -16,3.77612 -2.95428,0.40475 -14.46459,0.16521 -16,-0.33297 -0.616,-0.19986 -2.128,-0.51466 -3.36,-0.69954 -6.31986,-0.94841 -20.5627,-6.0371 -24.76465,-8.84793 -0.59657,-0.39906 -1.20248,-0.72556 -1.34649,-0.72556 -0.67665,0 -8.85945,-6.92868 -12.28886,-10.40544 -4.81329,-4.87975 -6.29847,-6.80928 -12.18798,-15.83456 -1.66362,-2.54938 -4.45975,-8.01757 -5.48161,-10.72 -1.4545,-3.84657 -2.39708,-6.54058 -2.68269,-7.6674 -0.17668,-0.69707 -0.44523,-1.41707 -0.59678,-1.6 -0.24438,-0.29498 -1.15089,-3.38901 -1.92569,-6.5726 -2.27834,-9.36147 -2.97189,-19.5174 -2.11973,-31.04 0.60721,-8.21049 1.47614,-12.66407 4.30797,-22.08 0.88373,-2.93841 4.40782,-10.70423 5.80858,-12.8 0.29409,-0.44 1.30111,-1.952 2.23783,-3.36 5.575,-8.3799 12.19443,-15.03677 22.63777,-22.76583 7.21781,-5.34186 20.38485,-12.09303 27.60233,-14.15261 0.616,-0.17578 1.912,-0.60258 2.88,-0.94845 4.05286,-1.44808 10.60035,-3.03603 14.60711,-3.54264 1.38209,-0.17475 4.31289,-0.56771 6.51289,-0.87326 5.84746,-0.81213 26.56252,-0.82142 31.2,-0.014 1.76,0.30643 4.784,0.76134 6.72,1.01092 4.47061,0.57633 7.91728,1.26921 11.36,2.28367 4.78999,1.41145 12.40606,3.99348 13.64998,4.62767 0.66294,0.33799 1.39837,0.61452 1.63428,0.61452 0.23592,0 0.96147,0.28593 1.61234,0.6354 0.65087,0.34947 2.6234,1.33935 4.3834,2.19973 5.723,2.7977 9.13131,4.74038 11.86854,6.76487 0.5949,0.44 1.95731,1.448 3.02757,2.24 12.26688,9.07759 24.20629,22.78371 30.52337,35.04 0.63499,1.232 1.29546,2.456 1.46771,2.72 0.17226,0.264 0.45676,0.84 0.63224,1.28 0.17547,0.44 0.45459,1.016 0.62026,1.28 0.55989,0.89221 1.94029,4.11737 1.94324,4.54018 0.002,0.2309 0.3571,1.13982 0.78999,2.01982 0.43289,0.88 0.79789,1.816 0.81112,2.08 0.0132,0.264 0.24151,1.056 0.50729,1.76 0.50556,1.33916 1.2093,3.90991 2.54036,9.28 5.24895,21.17656 4.34268,42.90092 -2.77539,66.52904 -0.53534,1.77703 -1.24366,4.14637 -1.57405,5.26519 -0.33039,1.11883 -0.73079,2.19883 -0.88978,2.4 -0.15898,0.20118 -0.47366,0.94177 -0.69929,1.64577 -0.22562,0.704 -0.58939,1.568 -0.80838,1.92 -0.21899,0.352 -0.50278,1 -0.63064,1.44 -0.76374,2.62813 -6.88423,14.69657 -9.57497,18.88 -4.76968,7.41567 -7.10631,10.66823 -11.67209,16.24737 -6.92648,8.46379 -10.56509,12.32617 -16.50298,17.51792 -1.40574,1.22909 -2.74131,2.408 -2.96794,2.61979 -0.22663,0.21179 -1.09248,0.93179 -1.92412,1.6 -0.83163,0.66821 -1.58406,1.28692 -1.67206,1.37492 -0.58644,0.58644 -4.33792,3.29868 -6.00797,4.34362 -2.56365,1.60407 -4.02971,2.55027 -6.36032,4.10494 -3.51868,2.3472 -7.52017,4.77863 -9.39171,5.7067 -0.616,0.30547 -2.416,1.2764 -4,2.15763 -1.584,0.88122 -3.816,2.05354 -4.96,2.60514 -6.91782,3.33557 -8.6282,4.12197 -8.96512,4.12197 -0.20687,0 -0.75835,0.21185 -1.22551,0.47077 -0.46715,0.25893 -2.00137,0.84539 -3.40937,1.30324 -1.408,0.45786 -3.424,1.16282 -4.48,1.56658 -1.056,0.40376 -3.144,1.10556 -4.64,1.55956 -1.496,0.454 -3.44,1.06274 -4.32,1.35275 -0.88,0.29001 -2.752,0.79668 -4.16,1.12593 -1.408,0.32926 -3.424,0.80901 -4.48,1.06613 -5.71472,1.39144 -14.34481,2.47705 -23.36,2.93855 -7.23728,0.37049 -21.8794,-0.76301 -26.88,-2.08088 -8.22975,-2.16888 -15.27639,-4.42895 -20,-6.4146 -1.32,-0.55488 -2.904,-1.20158 -3.52,-1.43711 -1.25971,-0.48165 -8.39911,-4.11571 -10.77036,-5.48226 -2.94188,-1.69542 -10.76865,-6.96237 -14.32345,-9.63882 -4.98661,-3.75449 -17.9274,-16.00628 -20.72429,-19.62087 -0.47195,-0.60993 -1.65575,-2.04497 -2.63067,-3.18897 -2.12743,-2.49639 -9.70921,-12.50185 -10.66933,-14.08 -0.37476,-0.616 -1.20948,-2.128 -1.85494,-3.36 -0.64546,-1.232 -1.34674,-2.456 -1.5584,-2.72 -0.81931,-1.02192 -6.94007,-13.68585 -8.19715,-16.96 -0.30408,-0.792 -0.87551,-2.232 -1.26984,-3.2 -0.94618,-2.32265 -2.46006,-6.48314 -3.08563,-8.48 -0.27568,-0.88 -0.61975,-1.74575 -0.7646,-1.92389 -0.14485,-0.17813 -0.47986,-1.18613 -0.74445,-2.24 -0.2646,-1.05386 -0.68995,-2.56411 -0.94521,-3.35611 -1.66962,-5.18022 -3.60555,-14.90602 -5.22309,-26.24 -0.66001,-4.62462 -0.83012,-7.32782 -0.97666,-15.52 -0.17577,-9.82582 -0.0973,-11.50168 1.01861,-21.76 0.85712,-7.8791 2.7685,-18.46301 4.13198,-22.88 1.09228,-3.53841 3.71975,-11.44278 4.83986,-14.56 0.63242,-1.76 1.34214,-3.776 1.57715,-4.48 0.235,-0.704 0.65661,-1.712 0.93691,-2.24 0.28029,-0.528 0.5105,-1.074 0.51159,-1.21334 0.002,-0.2199 0.73654,-1.90314 2.40397,-5.50666 0.24431,-0.528 0.82006,-1.824 1.27943,-2.88 1.31325,-3.01893 5.68022,-11.55164 7.53356,-14.72 0.92657,-1.584 1.91424,-3.312 2.19484,-3.84 0.28059,-0.528 1.07526,-1.824 1.76592,-2.88 0.69067,-1.056 1.56684,-2.424 1.94705,-3.04 2.43889,-3.9514 8.22549,-11.9969 9.32129,-12.96 0.20025,-0.176 0.90064,-1.04 1.55643,-1.92 0.65578,-0.88 2.07595,-2.65675 3.15591,-3.94834 13.23909,-15.83334 23.9834,-26.06468 42.93856,-40.88856 6.49711,-5.08106 9.90549,-7.37604 20.22898,-13.62089 4.78548,-2.89481 17.87815,-10.26627 19.59603,-11.03299 0.616,-0.27493 3.50658,-1.69021 6.42352,-3.14506 2.91694,-1.45485 5.65294,-2.75211 6.08,-2.8828 0.77445,-0.237 2.51131,-0.97034 4.93648,-2.08431 1.20259,-0.55239 4.68783,-1.90005 8.32,-3.21713 3.11636,-1.13005 9.62428,-3.21753 11.36,-3.64383 10.97312,-2.69507 14.98278,-3.50018 22.4,-4.49776 1.848,-0.24855 4.12916,-0.60062 5.06923,-0.78238 6.86345,-1.32701 37.14905,-1.34014 45.65077,-0.0198 1.056,0.16401 3.216,0.44731 4.8,0.62956 3.4373,0.3955 9.25693,1.42619 12.8,2.26695 1.408,0.33411 3.208,0.74444 4,0.91184 5.85356,1.23719 17.28216,4.73861 24.16,7.40196 1.408,0.54523 3.136,1.18849 3.84,1.42946 2.3805,0.8148 5.43484,2.02381 6.4,2.53333 0.528,0.27873 1.07745,0.50767 1.221,0.50876 0.46711,0.004 10.19535,4.88341 14.299,7.17267 2.2,1.2273 4.61506,2.55316 5.3668,2.94636 0.75174,0.3932 2.83974,1.68303 4.64,2.86629 1.80026,1.18325 3.7772,2.46785 4.3932,2.85466 7.50597,4.71329 13.69806,9.23741 18.85218,13.77393 0.8073,0.71057 2.97669,2.58257 4.82086,4.16 9.3547,8.00163 21.164,21.05134 27.54093,30.43374 2.96981,4.36951 7.70683,11.61244 8.86477,13.55432 0.83327,1.3974 4.91311,8.62982 5.23488,9.28 0.79788,1.61219 5.56124,11.59173 6.07142,12.72 0.33823,0.748 0.89202,1.972 1.23064,2.72 0.33862,0.748 0.71872,1.72 0.84467,2.16 0.12595,0.44 0.85689,2.12831 1.62432,3.7518 0.76743,1.62349 1.39533,3.1088 1.39533,3.30068 0,0.19188 0.27024,1.02357 0.60052,1.8482 0.33029,0.82463 0.99365,2.57932 1.47414,3.89932 0.48048,1.32 1.13115,3.048 1.44591,3.84 0.31477,0.792 0.95273,2.664 1.41768,4.16 0.46495,1.496 1.1853,3.656 1.60077,4.8 0.41547,1.144 1.07396,3.232 1.46332,4.64 0.38935,1.408 0.91399,3.208 1.16586,4 0.25188,0.792 0.82371,2.952 1.27074,4.8 0.44703,1.848 1.10021,4.512 1.45151,5.92 3.46192,13.87521 5.13089,25.33696 6.36033,43.68 0.74886,11.17272 0.79165,20.20504 0.14856,31.36 -0.25874,4.488 -0.55837,9.672 -0.66585,11.52 -0.39305,6.75814 -2.66665,22.94401 -3.79064,26.98582 -0.253,0.9098 -0.55954,2.44618 -0.68119,3.41418 -0.12165,0.968 -0.35778,2.12 -0.52474,2.56 -0.16696,0.44 -0.56634,2.024 -0.88753,3.52 -0.65369,3.04479 -1.7603,7.13022 -3.0337,11.2 -0.46809,1.496 -1.11729,3.656 -1.44268,4.8 -0.54368,1.91148 -2.34383,7.02269 -4.2827,12.16 -0.43175,1.144 -1.02848,2.728 -1.32605,3.52 -0.29758,0.792 -0.8117,2.016 -1.1425,2.72 -0.3308,0.704 -1.04252,2.36 -1.5816,3.68 -0.53908,1.32 -1.17693,2.832 -1.41743,3.36 -0.8473,1.86013 -8.99282,18.09907 -9.78273,19.50287 -3.32014,5.90044 -7.89954,13.31552 -10.31884,16.70853 -0.64673,0.90702 -2.36673,3.36734 -4.21458,6.0286 -0.36662,0.528 -1.31458,1.78242 -2.10658,2.78761 -0.792,1.00518 -1.99263,2.53959 -2.66807,3.40979 -0.67544,0.8702 -1.47519,1.84777 -1.77723,2.17239 -0.30204,0.32462 -1.8735,2.13328 -3.49214,4.01925 -3.783,4.40781 -14.38215,15.02558 -18.29882,18.33096 -1.66839,1.408 -3.25687,2.78111 -3.52995,3.05136 -0.27308,0.27025 -1.0674,0.91743 -1.76515,1.43818 -0.69775,0.52075 -1.34064,1.02457 -1.42864,1.1196 -0.45214,0.48825 -9.16416,6.79859 -11.52,8.34424 -5.98769,3.92848 -7.34378,4.77164 -10.88,6.76474 -12.45234,7.01846 -22.70118,11.37453 -34.72,14.75707 -2.60215,0.73234 -4.44195,1.13601 -14.08,3.08928 -11.68999,2.36911 -38.07154,2.42459 -45.39482,0.0955 -0.85515,-0.27198 -2.36715,-0.6727 -3.36,-0.8905 -2.45872,-0.53935 -6.71559,-1.85581 -9.80518,-3.03229 -2.88381,-1.09813 -3.75514,-1.18051 -5.3663,-0.50732 -1.33453,0.5576 -4.34189,3.83392 -5.54029,6.03577 -0.76916,1.4132 -0.83612,1.80125 -0.69189,4.00951 0.16001,2.44994 0.8225,4.28157 2.57109,7.10853 1.90039,3.07236 6.62924,8.15506 9.66739,10.39079 0.704,0.51806 1.352,1.02561 1.44,1.12788 0.18979,0.22057 7.02916,4.6846 8.64,5.63929 7.40958,4.39142 15.71659,7.26386 27.04,9.35004 1.936,0.35668 5.032,0.81065 6.88,1.00884 1.848,0.19818 4.224,0.47972 5.28,0.62564 1.056,0.14593 6.6,0.22058 12.32,0.16589 8.23356,-0.0787 11.55962,-0.24268 15.96673,-0.78714 z"
     id="path9" />
  <path
     style="fill:#000000"
     d="m 534.4,667.56657 c 3.256,-0.37312 6.784,-0.83169 7.84,-1.01906 1.056,-0.18736 3.648,-0.61004 5.76,-0.93927 2.112,-0.32923 4.92,-0.82778 6.24,-1.10787 4.86713,-1.03278 16.71112,-4.34549 19.2,-5.37016 0.44,-0.18115 1.736,-0.65392 2.88,-1.05061 6.46543,-2.24193 8.69021,-3.1308 13.6,-5.43366 0.88,-0.41275 2.752,-1.28247 4.16,-1.93272 7.59732,-3.50863 20.47784,-10.40002 25.44,-13.61103 0.792,-0.5125 1.656,-1.03207 1.92,-1.1546 1.93581,-0.89847 16.59163,-10.82331 21.48344,-14.54846 9.55771,-7.27828 25.42384,-22.11464 32.41077,-30.3072 5.5357,-6.49091 8.23959,-9.71431 10.69221,-12.74659 2.67268,-3.30435 10.85883,-14.34762 11.96192,-16.13686 0.47759,-0.77467 1.65775,-2.48848 2.62257,-3.80848 0.96483,-1.32 2.41547,-3.552 3.22365,-4.96 0.80817,-1.408 1.82901,-3.136 2.26853,-3.84 0.43952,-0.704 1.01551,-1.712 1.27998,-2.24 0.26447,-0.528 0.89764,-1.608 1.40706,-2.4 1.38797,-2.15792 5.30333,-9.01462 7.21778,-12.64 0.9294,-1.76 2.26774,-4.208 2.97408,-5.44 0.70634,-1.232 1.91543,-3.464 2.68686,-4.96 0.77143,-1.496 2.49905,-4.808 3.83914,-7.36 1.3401,-2.552 2.66206,-5.3203 2.93769,-6.15178 0.27563,-0.83148 1.35666,-3.21843 2.4023,-5.30434 1.04563,-2.08591 2.64661,-5.58161 3.55773,-7.76822 0.91112,-2.18661 2.50221,-5.94914 3.53577,-8.36117 1.2557,-2.93047 2.25769,-5.95634 3.02002,-9.12 0.62746,-2.60397 1.84474,-6.82249 2.70508,-9.37449 1.57478,-4.67126 2.85298,-10.06122 3.71843,-15.68 0.25754,-1.672 0.69202,-3.81917 0.96553,-4.77149 0.65276,-2.27289 3.20456,-15.05327 3.45591,-17.30851 0.10788,-0.968 0.33426,-3.704 0.50305,-6.08 0.1688,-2.376 0.59668,-7.632 0.95085,-11.68 0.35416,-4.048 0.82747,-11.32 1.05179,-16.16 0.51777,-11.1715 0.49805,-42.1771 -0.0323,-50.72 -0.87543,-14.10253 -1.36917,-19.89855 -2.1322,-25.02985 -0.43921,-2.95358 -1.00673,-7.21887 -1.26118,-9.47843 -0.44902,-3.98745 -2.21937,-14.54673 -3.2535,-19.40552 -0.28022,-1.31659 -1.21826,-4.41259 -2.08453,-6.88 -0.86626,-2.46741 -2.34103,-6.7182 -3.27725,-9.4462 -0.93621,-2.728 -2.42162,-6.688 -3.3009,-8.8 -0.87928,-2.112 -1.8416,-4.83065 -2.13849,-6.04144 -0.75738,-3.08877 -6.18748,-16.19494 -8.83591,-21.32647 -1.2176,-2.35918 -2.89504,-5.86547 -3.72765,-7.79176 -0.8326,-1.92629 -2.07927,-4.59539 -2.77037,-5.93134 -0.69109,-1.33594 -2.11277,-4.15699 -3.15928,-6.26899 -2.23982,-4.52027 -5.6856,-10.50979 -8.53286,-14.83198 -1.11883,-1.69841 -2.38524,-3.77988 -2.81424,-4.62548 -0.42899,-0.8456 -1.68644,-2.9336 -2.79432,-4.64 -2.47088,-3.80572 -4.49714,-6.9554 -6.14617,-9.55377 -2.37354,-3.73995 -4.31361,-6.67235 -5.18098,-7.83099 -0.47853,-0.63922 -1.50609,-2.07922 -2.28347,-3.2 -2.49783,-3.6012 -2.72313,-3.9112 -4.18658,-5.76044 -0.792,-1.00079 -1.8275,-2.3726 -2.30112,-3.04848 -1.88012,-2.68304 -4.75918,-6.52965 -5.29374,-7.07277 -0.31083,-0.31581 -1.21116,-1.36212 -2.00074,-2.32514 -0.78958,-0.96302 -1.52106,-1.82295 -1.62551,-1.91095 -0.10445,-0.088 -1.38605,-1.6 -2.84801,-3.36 -7.44103,-8.95802 -21.85765,-23.43733 -30.15496,-30.2861 -1.35524,-1.11865 -4.31438,-3.6179 -6.57587,-5.5539 -5.52595,-4.73062 -8.42265,-7.00651 -18.51244,-14.54496 C 604.5965,91.802471 591.66144,83.638282 578.4,76.716684 c -6.16004,-3.215137 -20.03907,-10.047765 -20.96,-10.31858 -0.7421,-0.218227 -3.80193,-1.417211 -5.28,-2.068949 -7.16881,-3.161004 -11.4899,-4.95048 -16.64,-6.891061 -1.056,-0.397906 -2.928,-1.148858 -4.16,-1.668783 -3.12882,-1.320414 -9.43319,-3.455629 -12.48,-4.226823 -1.408,-0.356387 -3.568,-1.030582 -4.8,-1.498212 -1.232,-0.46763 -3.176,-1.099444 -4.32,-1.404032 -1.144,-0.304588 -4.024,-1.131034 -6.4,-1.836545 -2.376,-0.705512 -5.832,-1.719058 -7.68,-2.252325 -1.848,-0.533267 -4.584,-1.39738 -6.08,-1.920252 -2.73219,-0.954935 -13.11382,-2.68734 -18.72,-3.123845 -3.32359,-0.258779 -5.63164,-0.603635 -11.68,-1.745159 -8.5007,-1.604359 -16.64915,-2.026636 -41.76,-2.164129 -30.61147,-0.167611 -41.23228,-0.11382 -43.84,0.222034 -1.232,0.158672 -3.824,0.518411 -5.76,0.79942 -7.496,1.088037 -10.37265,1.453231 -13.99473,1.776647 -4.06012,0.362529 -17.28388,2.880944 -18.47523,3.518539 -1.415,0.757284 -5.1579,1.891773 -7.92807,2.403031 -5.13874,0.948401 -13.00258,2.995804 -16.49615,4.294885 -1.89979,0.706438 -4.33433,1.444037 -5.41008,1.639108 -3.07837,0.558215 -11.5718,3.34508 -13.44046,4.410085 -0.93241,0.531405 -3.13528,1.546668 -4.89528,2.256142 -5.57899,2.248949 -7.63529,3.127478 -9.32772,3.985162 -0.90625,0.459263 -3.93025,1.645763 -6.72,2.636665 -2.78975,0.990902 -5.21628,1.913214 -5.39228,2.049581 -0.57396,0.444716 -13.63225,7.425496 -18.88,10.092988 -7.16243,3.640745 -12.95744,6.983959 -18.35718,10.590491 -1.87155,1.250023 -4.05082,2.598061 -4.84282,2.995641 -0.792,0.39758 -2.736,1.683048 -4.32,2.856595 -1.584,1.173547 -3.888,2.749113 -5.12,3.501257 -1.232,0.752144 -3.3407,2.115931 -4.686,3.030638 -1.3453,0.914706 -3.32007,2.152372 -4.38837,2.750362 -1.94283,1.08751 -4.15333,2.79339 -9.71981,7.50091 -1.6312,1.37949 -3.75782,3.15762 -4.72582,3.95139 -0.968,0.79377 -5.576,5.14765 -10.24,9.67529 -4.664,4.52765 -10.25526,9.90788 -12.42501,11.95609 -2.16976,2.0482 -4.37788,4.26965 -4.90693,4.93653 -0.52906,0.66689 -2.94792,3.30053 -5.37525,5.85253 -2.42733,2.552 -5.1824,5.576 -6.12238,6.72 -0.93997,1.144 -3.14315,3.664 -4.89595,5.6 -1.75279,1.936 -5.37842,6.256 -8.05695,9.6 -2.67853,3.344 -5.64123,7.04073 -6.58379,8.21495 -0.94256,1.17423 -1.95486,2.47023 -2.24956,2.88 -0.2947,0.40978 -1.227,1.68105 -2.07177,2.82505 -2.06454,2.79582 -2.04689,2.7706 -7.95222,11.36 -2.26596,3.29586 -8.22279,12.93852 -10.64486,17.23144 -0.48143,0.85329 -1.20978,2.06309 -1.61856,2.68844 -0.40877,0.62535 -1.47408,2.5192 -2.36735,4.20856 -0.89327,1.68936 -2.19751,4.15156 -2.8983,5.47156 -0.70079,1.32 -2.13708,4.056 -3.191758,6.08 -1.054678,2.024 -2.019859,3.824 -2.144848,4 -0.124988,0.176 -0.419101,0.824 -0.653585,1.44 -0.234483,0.616 -0.591765,1.336 -0.793959,1.6 -0.202195,0.264 -0.842371,1.56 -1.422614,2.88 -0.580243,1.32 -1.687096,3.742 -2.459672,5.38223 -0.772576,1.64023 -1.404684,3.08236 -1.404684,3.20474 0,0.12238 -0.269127,0.72464 -0.598061,1.33836 -0.328933,0.61372 -0.99523,2.12359 -1.48066,3.35526 -0.48543,1.23168 -1.493002,3.67941 -2.239049,5.43941 -1.643651,3.87754 -4.327589,11.27892 -5.279842,14.56 -0.383098,1.32 -0.983887,3.21188 -1.335086,4.20418 -0.3512,0.9923 -0.753264,2.2883 -0.893477,2.88 -0.140213,0.5917 -0.784536,2.86157 -1.431829,5.04416 -0.647294,2.18259 -1.310907,4.70259 -1.474696,5.6 -0.163789,0.89741 -0.581907,2.71166 -0.929152,4.03166 -1.367217,5.19727 -3.224932,13.58 -3.723086,16.8 -0.108913,0.704 -0.400254,1.99147 -0.647424,2.86105 -0.24717,0.86957 -0.59786,2.88557 -0.779312,4.48 -0.181451,1.59442 -0.472566,3.54695 -0.646922,4.33895 -0.174356,0.792 -0.595527,3.744 -0.935936,6.56 -0.340409,2.816 -0.828923,6.776 -1.085587,8.8 -1.663007,13.11414 -1.387151,58.48049 0.434886,71.52 0.3443,2.464 0.784961,5.98696 0.979246,7.82879 0.194285,1.84184 0.411696,3.44337 0.483135,3.55896 0.07144,0.11559 0.352469,1.70463 0.624509,3.53121 0.272041,1.82657 0.768185,4.54504 1.102543,6.04104 0.641999,2.87246 1.720333,8.25126 2.245358,11.2 1.402756,7.8784 3.100114,14.82215 5.143643,21.04223 3.008968,9.15866 3.92374,11.65659 7.059745,19.27777 0.325897,0.792 1.225574,3.024 1.999282,4.96 3.648414,9.12919 14.635352,31.7696 17.625372,36.32 1.37672,2.09518 3.62417,5.91329 4.89739,8.32 1.47381,2.78586 3.48148,5.86804 6.08254,9.33788 1.01336,1.35184 2.49047,3.41082 3.28247,4.57552 0.792,1.1647 3.024,4.16532 4.96,6.66803 1.936,2.50272 4.16722,5.41174 4.95827,6.46448 0.79105,1.05275 2.23105,2.87498 3.2,4.0494 0.96895,1.17442 2.48173,3.09886 3.36173,4.27654 3.25315,4.35361 9.41816,11.62876 12.47468,14.72102 0.35493,0.35907 2.66132,2.7855 5.12532,5.39207 2.464,2.60656 6.424,6.54426 8.8,8.75045 2.376,2.20619 5.50231,5.13816 6.94735,6.5155 4.76834,4.54495 16.7695,14.41931 21.63195,17.79844 0.56138,0.39013 1.5967,1.13763 2.3007,1.66111 0.704,0.52348 3.656,2.5421 6.56,4.48582 2.904,1.94372 6.35964,4.29222 7.6792,5.21889 2.45216,1.72204 2.71048,1.87888 5.7608,3.49772 0.968,0.51374 2.29369,1.252 2.94599,1.6406 0.65229,0.38859 2.81229,1.62792 4.8,2.75407 1.9877,1.12614 3.99489,2.31318 4.4604,2.63786 0.92964,0.64838 9.70829,5.0746 10.0646,5.0746 0.12202,0 1.24496,0.48883 2.49543,1.08629 6.39535,3.05564 8.1464,3.81549 10.54293,4.575 1.43586,0.45504 3.47465,1.15707 4.53065,1.56006 1.91537,0.73094 3.93892,1.37242 8.48,2.68822 1.32,0.38248 3.48,1.03976 4.8,1.46063 3.02986,0.96606 5.98095,1.61225 10.20104,2.2337 1.82658,0.26899 3.42824,0.55531 3.55924,0.63628 0.29454,0.18203 7.04835,1.33418 11.35972,1.93787 3.64195,0.50996 15.01481,0.60186 19.59819,0.15837 2.35876,-0.22824 3.38283,-0.50195 5.05379,-1.35076 l 2.0956,-1.06453 -1.05379,-0.21682 c -1.75581,-0.36127 -8.2578,-0.90205 -10.85961,-0.90322 -1.3452,-6e-4 -4.4412,-0.20985 -6.88,-0.46501 -2.4388,-0.25515 -6.23418,-0.61811 -8.43418,-0.80657 -2.2,-0.18846 -5.08,-0.61584 -6.4,-0.94973 -3.13503,-0.79301 -6.41257,-1.57903 -8.8,-2.11042 -1.056,-0.23504 -3.576,-0.88615 -5.6,-1.4469 -2.024,-0.56075 -4.976,-1.34938 -6.56,-1.7525 -4.87731,-1.24128 -8.04652,-2.30645 -13.28,-4.4634 -1.144,-0.47149 -3.38358,-1.33698 -4.97684,-1.9233 -1.59326,-0.58632 -5.02494,-2.08691 -7.62595,-3.33465 -2.60102,-1.24774 -4.80007,-2.26861 -4.88679,-2.26861 -0.4637,0 -8.87152,-4.41663 -11.47042,-6.02541 -0.88,-0.54475 -2.248,-1.37865 -3.04,-1.85312 -0.792,-0.47447 -2.16,-1.31945 -3.04,-1.87774 -0.88,-0.55828 -2.536,-1.57103 -3.68,-2.25054 -2.52579,-1.50028 -4.35992,-2.73884 -6.88651,-4.65035 -1.05242,-0.79622 -2.92149,-2.08636 -4.15349,-2.86697 -1.232,-0.78062 -3.21372,-2.19665 -4.40383,-3.14673 -1.19011,-0.95008 -3.85411,-2.92389 -5.92,-4.38625 -2.06589,-1.46235 -4.04417,-2.92933 -4.39617,-3.25994 -0.352,-0.33061 -1.936,-1.74452 -3.52,-3.14203 -1.584,-1.39751 -2.92858,-2.65066 -2.98795,-2.78478 -0.0594,-0.13412 -0.7588,-0.69165 -1.55428,-1.23896 -1.95297,-1.34367 -16.1996,-15.60999 -19.76987,-19.79718 -1.57572,-1.848 -2.95488,-3.432 -3.06479,-3.52 -0.47657,-0.38158 -4.41999,-5.05195 -5.64703,-6.68805 -0.73916,-0.98557 -1.53116,-2.00267 -1.76,-2.26021 -0.22884,-0.25754 -0.56008,-0.70167 -0.73608,-0.98695 -0.176,-0.28527 -0.86,-1.32764 -1.52,-2.31637 -0.66,-0.98872 -1.2,-1.94043 -1.2,-2.1149 0,-0.17448 -0.26472,-0.50539 -0.58828,-0.73537 -0.66419,-0.47211 -1.21076,-2.17815 -0.69782,-2.17815 0.17936,0 0.3261,0.22052 0.3261,0.49004 0,0.26953 0.252,0.58358 0.56,0.6979 0.308,0.11432 2.8651,2.52181 5.68245,5.34996 6.8418,6.86804 11.45991,11.22794 15.51755,14.6499 1.848,1.55849 3.648,3.08939 4,3.40199 5.35876,4.759 10.93866,9.40661 15.93816,13.27522 0.49399,0.38224 1.58385,1.27099 2.42193,1.97499 2.19807,1.84643 5.17777,3.94466 11.80116,8.31008 9.57834,6.313 11.46657,7.48124 17.83875,11.03672 1.936,1.08023 3.736,2.09353 4,2.25179 0.73164,0.4386 8.62774,4.51591 10.08,5.20501 0.704,0.33405 1.496,0.7428 1.76,0.90832 0.264,0.16552 0.984,0.52137 1.6,0.79077 0.616,0.26941 1.552,0.69129 2.08,0.93753 6.76648,3.15553 7.83614,3.61186 12,5.11934 1.144,0.41418 3.304,1.20305 4.8,1.75306 3.89678,1.43267 7.43935,2.54036 15.68,4.90281 5.90397,1.69258 14.45035,3.60376 17.44,3.90002 1.232,0.12208 3.10844,0.42088 4.16986,0.66398 1.06143,0.24311 3.87092,0.58935 6.24331,0.76943 2.3724,0.18007 5.45039,0.47155 6.83998,0.64774 4.21624,0.53456 15.68144,0.73181 20.98685,0.36105 7.18519,-0.50213 14.38844,-1.25755 15.68,-1.6444 0.616,-0.18451 2.2,-0.54271 3.52,-0.79601 2.73282,-0.52441 7.35129,-1.86306 8.84836,-2.56467 0.5546,-0.25991 1.15572,-0.47257 1.33582,-0.47257 0.40731,0 4.87845,-1.73046 6.65087,-2.57408 0.72328,-0.34425 1.41619,-0.62592 1.53982,-0.62592 0.26163,0 2.62253,-1.07222 6.90513,-3.13601 4.43987,-2.13958 12.88838,-6.92502 15.84,-8.97215 3.45921,-2.39916 7.71537,-5.47618 9.97707,-7.21296 3.71596,-2.85354 9.96207,-9.4156 14.08714,-14.79973 0.38731,-0.50553 1.61131,-2.10196 2.72,-3.54761 1.10868,-1.44566 3.45579,-4.73909 5.21579,-7.31874 1.76,-2.57966 3.8924,-5.47565 4.73867,-6.43554 1.64386,-1.86458 1.75712,-2.44125 0.50898,-2.59154 -0.53554,-0.0645 -1.38736,0.37458 -2.69532,1.38926 -1.05178,0.81594 -2.93515,2.15437 -4.18525,2.97428 -1.25011,0.81991 -4.76227,3.49116 -7.80479,5.93612 -6.01351,4.83244 -12.43001,9.58539 -15.62609,11.57486 -1.11308,0.69287 -2.5528,1.60366 -3.19937,2.02398 -2.07788,1.35079 -6.91651,4.07828 -7.57683,4.27098 -0.352,0.10272 -1.864,0.71783 -3.36,1.3669 -1.496,0.64908 -3.296,1.36924 -4,1.60036 -0.704,0.23113 -1.79961,0.64254 -2.43469,0.91425 -1.78653,0.76434 -11.98403,3.32181 -14.84531,3.72311 -1.408,0.19748 -3.712,0.56076 -5.12,0.8073 C 346.68237,623.24607 334.20621,624 326.84832,624 c -14.69013,0 -33.45028,-2.48622 -45.88832,-6.08142 -1.144,-0.33067 -2.44,-0.68897 -2.88,-0.79621 -0.44,-0.10725 -1.736,-0.46194 -2.88,-0.78821 -1.144,-0.32626 -3.448,-0.98239 -5.12,-1.45807 -4.49418,-1.27856 -14.85782,-4.78861 -17.28,-5.85254 -0.44,-0.19327 -1.88,-0.79881 -3.2,-1.34565 -2.90277,-1.20253 -3.90289,-1.66649 -11.68,-5.4184 -6.85647,-3.30777 -9.27957,-4.54977 -11.36,-5.82277 -0.792,-0.48462 -3.096,-1.83302 -5.12,-2.99644 -2.024,-1.16342 -4.616,-2.71104 -5.76,-3.43917 -3.70084,-2.35547 -11.93501,-7.80495 -14.4,-9.5301 -1.32,-0.92381 -3.048,-2.12659 -3.84,-2.67283 -0.792,-0.54623 -2.2625,-1.64229 -3.26779,-2.43567 -1.00528,-0.79339 -2.70331,-2.09052 -3.77339,-2.88252 -5.91284,-4.37627 -20.84117,-18.13847 -26.23882,-24.18917 -0.616,-0.69053 -2.56,-2.83991 -4.32,-4.77639 -1.76,-1.93649 -4.352,-4.88262 -5.76,-6.54696 -1.408,-1.66433 -2.90371,-3.39088 -3.3238,-3.83677 -0.42009,-0.44589 -0.99609,-1.18376 -1.28,-1.63971 -0.28391,-0.45595 -1.13978,-1.60795 -1.90194,-2.56 -4.68351,-5.85044 -11.46706,-15.75202 -14.12056,-20.611 -0.76891,-1.408 -1.93251,-3.352 -2.58577,-4.32 -0.65326,-0.968 -2.23283,-3.56 -3.51016,-5.76 -1.27733,-2.2 -2.55213,-4.36 -2.83289,-4.8 -0.93603,-1.4669 -7.59293,-14.85863 -8.11252,-16.32 -1.06131,-2.98498 -2.17769,-5.78481 -3.1487,-7.8968 -1.17174,-2.54858 -1.46561,-3.34178 -4.2861,-11.56896 -1.16636,-3.40217 -2.70058,-8.44217 -3.40939,-11.2 -0.70882,-2.75783 -1.62564,-6.16624 -2.0374,-7.57424 -1.68025,-5.74566 -5.778974,-22.75848 -6.745751,-28 -0.878614,-4.76353 -2.163409,-13.28814 -2.676717,-17.76 -2.232415,-19.44844 -1.935536,-50.96572 0.629979,-66.88 0.340472,-2.112 0.76424,-4.97072 0.941708,-6.35271 0.177467,-1.38199 0.391154,-2.62352 0.474858,-2.75895 0.0837,-0.13544 0.374024,-1.72319 0.645153,-3.52834 0.271129,-1.80515 0.586151,-3.43287 0.700048,-3.61716 0.113897,-0.18429 0.457667,-1.49782 0.763932,-2.91896 0.53116,-2.46469 1.365988,-5.7215 3.0001,-11.70388 1.51643,-5.5516 1.82409,-6.59626 2.40312,-8.16 0.32586,-0.88 0.98212,-2.896 1.45835,-4.48 0.47624,-1.584 1.13781,-3.55469 1.47017,-4.37932 0.33235,-0.82463 0.60517,-1.68863 0.60625,-1.92 10e-4,-0.23137 0.22738,-0.85268 0.50287,-1.38068 0.27549,-0.528 0.75943,-1.68 1.07541,-2.56 0.91575,-2.55032 3.18586,-8.20003 3.87147,-9.63505 0.34555,-0.72328 0.62828,-1.41619 0.62828,-1.53982 0,-0.12362 0.37608,-1.04385 0.83574,-2.04495 0.45966,-1.0011 1.09471,-2.39618 1.41122,-3.10018 1.90277,-4.23221 2.53925,-5.58139 4.67981,-9.92 3.49934,-7.09269 8.09852,-15.41619 11.75834,-21.28 0.82386,-1.32 1.67274,-2.68345 1.88641,-3.02989 0.60805,-0.98591 7.6904,-11.73841 8.43763,-12.81011 2.76057,-3.95927 7.35759,-10.29767 7.6588,-10.56 0.20209,-0.176 1.13297,-1.328 2.06864,-2.56 2.15412,-2.83637 4.52913,-5.66359 7.66124,-9.12 1.35564,-1.496 3.61951,-4.016 5.03084,-5.6 2.16418,-2.42897 10.43444,-10.75988 13.97749,-14.08 7.27075,-6.81327 11.61601,-10.55974 18.36067,-15.83054 2.24024,-1.7507 4.57717,-3.60087 5.19317,-4.1115 1.23393,-1.02286 6.13329,-4.73951 7.24752,-5.49796 2.21231,-1.50592 22.56221,-15.05183 23.63248,-15.73096 3.38435,-2.14753 12.5999,-7.11774 23.04,-12.42614 6.336,-3.22162 11.808,-6.042 12.16,-6.26752 0.352,-0.22551 2.44,-1.22508 4.64,-2.22125 2.2,-0.99617 5.44,-2.46595 7.2,-3.26617 11.55773,-5.254986 29.86049,-12.065923 43.2,-16.075864 2.464,-0.740694 6.064,-1.825876 8,-2.411517 1.936,-0.58564 4.34062,-1.230028 5.3436,-1.431973 1.00299,-0.201945 3.66699,-0.921452 5.92,-1.598904 2.25302,-0.677452 6.26036,-1.677638 8.9052,-2.222635 2.64484,-0.544997 5.30884,-1.136075 5.92,-1.313506 1.36991,-0.397709 13.49503,-2.042769 19.9912,-2.71228 2.64,-0.272085 5.016,-0.557202 5.28,-0.633595 0.66791,-0.193269 9.07992,-0.737826 17.28,-1.118632 6.77012,-0.314399 11.21753,-0.207831 26.72,0.640258 3.52,0.192567 7.912,0.552824 9.76,0.800571 1.848,0.247747 4.99839,0.604722 7.00086,0.793278 2.00247,0.188556 4.59447,0.540738 5.76,0.782627 1.16553,0.241889 2.98314,0.532347 4.03914,0.645463 1.056,0.113116 3.144,0.47886 4.64,0.812765 1.496,0.333904 4.448,0.988342 6.56,1.454306 2.112,0.465965 4.62512,1.060951 5.58471,1.322193 0.95958,0.261241 2.75958,0.664741 4,0.896665 1.24041,0.231924 3.62329,0.784334 5.29529,1.227577 1.672,0.443243 4.408,1.167457 6.08,1.609363 11.88959,3.142396 16.05124,4.378005 23.36,6.935674 6.60437,2.311172 7.41258,2.613238 11.52,4.305598 2.024,0.833938 4.4,1.792674 5.28,2.130525 1.83009,0.702614 2.07245,0.806056 5.12,2.18532 4.32266,1.956353 22.20442,11.083563 25.17478,12.849713 0.99812,0.59348 3.15812,1.85213 4.8,2.797 6.66251,3.83418 15.28166,9.26326 16.10522,10.14444 0.176,0.18832 0.68,0.58272 1.12,0.87645 3.52058,2.35026 10.02108,7.04068 11.84,8.54312 0.792,0.6542 1.872,1.41726 2.4,1.69569 0.528,0.27843 1.39369,0.91036 1.92375,1.40429 0.88585,0.82548 7.07858,5.5158 11.93089,9.03635 1.10805,0.80394 2.54805,1.85813 3.2,2.34265 0.65195,0.48451 1.4277,1.06051 1.7239,1.28 2.14779,1.59153 5.83929,4.47248 9.82521,7.66786 2.57194,2.06184 5.03625,4.03554 5.47625,4.38599 2.33002,1.85584 9.74088,8.20505 12.16,10.41803 2.55767,2.33972 12.32497,12.09702 16.02358,16.00718 2.54803,2.69378 8.65455,9.9034 12.29642,14.51772 0.88,1.11497 2.18969,2.76861 2.91041,3.67475 2.4935,3.13497 10.73863,15.46017 12.07317,18.04753 0.29503,0.572 0.7735,1.508 1.06326,2.08 0.28977,0.572 0.71245,1.25704 0.9393,1.52232 0.815,0.95306 8.39617,16.26678 10.90364,22.02502 0.43413,0.99696 0.90962,2.03883 1.05664,2.31527 0.31983,0.60135 1.34547,3.20106 4.34657,11.01739 0.40545,1.056 1.33557,3.792 2.06693,6.08 0.73136,2.288 1.73691,5.384 2.23456,6.88 1.55642,4.67883 2.56552,8.02155 2.56552,8.49849 0,0.25243 0.27763,1.28754 0.61696,2.30024 0.33933,1.0127 0.71122,2.48927 0.82644,3.28127 0.11521,0.792 0.4792,2.52 0.80885,3.84 0.32965,1.32 0.98225,4.056 1.45023,6.08 0.46798,2.024 1.05217,4.472 1.29821,5.44 0.24604,0.968 0.66641,3.128 0.93415,4.8 0.26774,1.672 0.63307,3.5859 0.81185,4.25311 0.17877,0.66722 0.4622,2.46722 0.62983,4 0.16763,1.53279 0.51694,4.22689 0.77623,5.98689 0.74238,5.03905 2.03399,19.20585 2.40694,26.4 0.54945,10.59908 0.9833,26.51445 0.79816,29.28 -0.0943,1.408 -0.38759,6.664 -0.65183,11.68 -0.26425,5.016 -0.62015,10.128 -0.7909,11.36 -0.17074,1.232 -0.60656,5.264 -0.96849,8.96 -0.36193,3.696 -0.86516,8.808 -1.11829,11.36 -0.68556,6.9116 -3.0438,22.18463 -4.5951,29.76 -1.28579,6.27883 -2.87811,12.4901 -4.96312,19.36 -0.42732,1.408 -1.21534,4.072 -1.75114,5.92 -1.78851,6.16866 -1.89411,6.45975 -7.83602,21.6 -3.10641,7.91526 -10.58155,24.21025 -13.56374,29.56747 -2.56839,4.61387 -6.16405,10.72638 -7.92514,13.47253 -0.73365,1.144 -1.39244,2.22692 -1.46399,2.40648 -0.13737,0.34474 -4.18215,6.34667 -6.46521,9.59352 -0.74254,1.056 -3.1489,4.1338 -5.34748,6.83956 -2.19857,2.70576 -4.1414,5.13951 -4.3174,5.40833 -2.96661,4.53119 -17.52228,20.0521 -26.08,27.80945 -5.55982,5.03983 -6.86875,6.17244 -8.43955,7.30266 -0.48921,0.352 -2.5065,1.864 -4.48286,3.36 -4.6516,3.52101 -4.39159,3.33884 -12.21451,8.55751 -8.67112,5.78451 -8.94814,5.96059 -13.10308,8.3288 -3.88823,2.21618 -16.23127,8.49169 -17.46053,8.87736 -0.42871,0.13451 -1.93147,0.78339 -3.33947,1.44197 -4.57837,2.14148 -8.90975,3.86486 -12.96,5.15655 -1.672,0.53324 -3.7432,1.24588 -4.60267,1.58366 -0.85947,0.33778 -1.75204,0.61415 -1.98348,0.61415 -0.23145,0 -1.54425,0.33985 -2.91733,0.75522 -1.37309,0.41537 -3.93652,1.13211 -5.69652,1.59275 -3.40505,0.8912 -4.75105,1.16908 -15.52,3.20409 -8.52249,1.6105 -12.84678,1.95231 -24.8,1.96027 -12.34579,0.008 -11.90511,0.0436 -28.17998,-2.25964 -6.55076,-0.92706 -7.19335,-0.94176 -8.17687,-0.18716 -1.18177,0.90671 -1.90957,1.07005 -2.64824,0.59432 -1.02308,-0.65889 -2.19306,-0.87336 -2.65826,-0.48728 -0.60765,0.50431 -0.49687,1.90668 0.22335,2.82743 0.34417,0.44 0.62897,0.97473 0.63288,1.18829 0.0122,0.66639 3.68328,4.354 5.65039,5.67586 1.0322,0.69362 2.45273,1.71171 3.15673,2.26242 4.11139,3.21618 11.984,6.49068 18.4,7.65322 1.496,0.27106 3.656,0.70544 4.8,0.96529 1.144,0.25984 2.656,0.4783 3.36,0.48546 0.704,0.007 1.82023,0.16306 2.48052,0.34643 2.53878,0.70505 6.54598,0.88984 17.35948,0.80051 8.87013,-0.0733 12.4315,-0.23364 17.12,-0.77091 z"
     id="path4" />
  <path
     style="display:inline;fill:#000000"
     d="m 472.7753,731.5138 c 4.11241,-0.34068 8.01642,-1.15702 11.44108,-2.39237 7.62863,-2.7518 15.10316,-8.75341 19.24463,-15.45232 2.50055,-4.04469 3.33193,-6.02741 4.24243,-10.11758 1.88383,-8.46257 0.36269,-13.44878 -5.32036,-17.43984 -2.99224,-2.10136 -20.2026,-10.59169 -21.46995,-10.59169 -1.18042,0 -11.28971,-5.43882 -15.91174,-8.56055 -6.33445,-4.27831 -9.78482,-7.78961 -16.42927,-16.71945 -3.55422,-4.77671 -6.48347,-7.73399 -9.85212,-9.9464 -6.96587,-4.57495 -12.20581,-6.215 -19.68,-6.15965 -5.57516,0.0413 -10.3867,1.05605 -18.4,3.88059 -2.83169,0.99812 -12.00115,5.35307 -13.81256,6.56014 -0.58709,0.39122 -1.42744,0.87055 -1.86744,1.06519 -0.87349,0.38639 -8.06227,4.64908 -10.88,6.45146 -0.968,0.61918 -2.3,1.46394 -2.96,1.87723 -2.64782,1.65806 -3.9593,2.52393 -4.75978,3.1425 -0.46187,0.35692 -1.18187,0.89252 -1.6,1.19023 -5.60441,3.99039 -11.39987,8.81165 -15.49883,12.89352 -2.78853,2.7769 -4.62871,5.08766 -11.08901,13.92475 -1.52767,2.08972 -3.86638,6.32591 -4.85298,8.79039 -2.221,5.54796 -2.2355,13.40153 -0.0333,18.04677 4.0615,8.56726 18.74662,19.31408 21.63548,15.83322 0.29934,-0.36069 0.23224,-1.20659 -0.30971,-3.90443 -1.55188,-7.72527 -0.33002,-16.55772 3.24292,-23.44204 1.04709,-2.01754 3.5141,-5.64087 4.78095,-7.02184 0.57436,-0.62611 1.53189,-1.69744 2.12785,-2.38075 1.29827,-1.48856 5.97576,-5.3916 8.16809,-6.8157 2.8055,-1.82242 7.21184,-3.78637 10.90835,-4.86196 5.94922,-1.73107 9.42463,-2.22124 15.84,-2.23406 5.2992,-0.0106 9.18385,0.5119 10.56,1.42034 0.616,0.40664 1.32739,0.80049 1.58088,0.87522 0.25348,0.0747 -1.70585,0.31085 -4.35406,0.52473 -2.64821,0.21388 -5.3036,0.53041 -5.90087,0.70341 -0.59727,0.173 -2.02195,0.46131 -3.16595,0.64069 -4.45893,0.69916 -12.15769,3.64008 -15.72767,6.00797 -0.76578,0.50792 -2.45784,1.61191 -3.76014,2.45331 -6.67954,4.31559 -13.70595,13.76773 -15.75595,21.19538 -0.97395,3.52887 -1.00327,7.79198 -0.0656,9.52979 0.83684,1.55083 2.19436,2.88029 3.41014,3.33964 1.1572,0.43722 4.82311,0.43566 6.40182,-0.003 1.76524,-0.49018 3.5101,-2.22826 5.04556,-5.02595 5.53485,-10.08477 10.06076,-14.34749 19.11597,-18.00431 1.2893,-0.52066 2.55289,-0.94666 2.80799,-0.94666 0.2551,0 1.27528,-0.28521 2.26707,-0.63379 3.55779,-1.25047 17.97266,-1.63784 24.90076,-0.66917 2.35786,0.32967 7.02079,1.50823 8.32,2.10289 0.528,0.24167 1.93671,0.87519 3.13047,1.40782 3.48042,1.5529 6.79823,4.05003 11.52235,8.67225 5.64937,5.52751 7.03918,6.308 8.54718,4.8 0.86825,-0.86825 0.85887,-3.98995 -0.0224,-7.46668 -1.03492,-4.08273 -4.43738,-8.64597 -9.73755,-13.0596 -1.232,-1.02593 -2.47528,-2.0665 -2.76284,-2.31237 -0.44666,-0.3819 -2.7363,-2.01569 -5.19762,-3.7088 -0.37375,-0.2571 -1.14441,-0.86194 -1.71257,-1.34411 -0.89494,-0.75946 -0.97197,-0.93772 -0.57624,-1.33346 0.39574,-0.39574 0.72634,-0.39524 2.47304,0.004 2.24746,0.51334 5.78869,1.71912 7.85274,2.67384 0.74608,0.3451 1.45018,0.62745 1.56465,0.62745 0.81062,0 6.20705,4.0972 8.59884,6.52861 2.29183,2.32979 3.15207,3.48152 4.21223,5.63954 3.06065,6.23017 3.75594,11.60712 2.15588,16.6722 -1.52463,4.82633 -2.54949,5.90032 -7.85906,8.23583 -2.82465,1.24248 -3.14397,1.85304 -1.7007,3.25192 0.79034,0.76602 1.61744,1.1765 2.9453,1.4617 2.27255,0.4881 8.87922,0.5467 13.98165,0.124 z"
     id="path3" />
  <path
     style="display:inline;fill:#000000"
     d="m 422.36488,1440.6161 c 5.57289,-1.9219 9.4987,-6.2819 10.47817,-11.637 0.25945,-1.4185 0.63241,-3.5151 0.82881,-4.6591 0.4484,-2.6118 0.38415,-703.28059 -0.0646,-704.46089 -1.13867,-2.99491 -7.80146,-6.06913 -17.76727,-8.19783 -0.704,-0.15037 -2.53467,-0.27968 -4.06815,-0.28734 -3.41669,-0.0171 -5.57865,0.73076 -7.48672,2.58971 -1.29442,1.2611 -1.30864,1.29935 -0.91386,2.45869 0.25614,0.75221 0.4731,4.18341 0.60054,9.49766 0.10975,4.576 0.26762,9.76 0.35084,11.52 0.0832,1.76 0.2261,6.44 0.31751,10.4 0.0914,3.96 0.24063,8.496 0.33159,10.08 0.54918,9.56361 0.8673,56.73035 1.04351,154.72 0.24435,135.8862 0.23167,102.606 0.11613,304.8 -0.0931,163.0043 -0.28917,204.7729 -0.9807,208.9594 -0.22406,1.3565 -0.53042,2.0922 -1.0446,2.5086 -0.72087,0.5837 -0.72999,0.5808 -0.99264,-0.3194 -0.1458,-0.4997 -0.39211,-3.5006 -0.54734,-6.6686 -0.15842,-3.2329 -0.25677,-103.3333 -0.22418,-228.16 0.0744,-285.04383 -0.0965,-462.69591 -0.44967,-467.36 -0.29763,-3.93071 -1.17004,-8.21857 -1.58368,-7.78372 -0.13797,0.14505 -0.48529,1.48772 -0.77183,2.98372 -1.4982,7.82207 -1.75092,63.53587 -1.81582,400.32 -0.0442,229.3839 0.0316,301.1514 0.32082,303.84 0.70923,6.5925 2.14906,9.2251 6.72415,12.2942 0.63476,0.4258 1.5141,1.0147 1.9541,1.3086 0.69406,0.4636 3.62025,1.5305 5.6,2.0418 0.352,0.091 2.296,0.1093 4.32,0.041 2.70877,-0.091 4.21969,-0.3104 5.72488,-0.8295 z"
     id="path2" />
</svg>
